<svg width="58" height="45" viewBox="0 0 58 45" fill="none" xmlns="http://www.w3.org/2000/svg">
<path d="M0 44.8V0H20.352C25.216 0 29.504 0.938667 33.216 2.816C36.928 4.65067 39.8293 7.232 41.92 10.56C44.0107 13.888 45.056 17.8347 45.056 22.4C45.056 26.9227 44.0107 30.8693 41.92 34.24C39.8293 37.568 36.928 40.1707 33.216 42.048C29.504 43.8827 25.216 44.8 20.352 44.8H0ZM10.368 36.288H19.84C22.8267 36.288 25.408 35.7333 27.584 34.624C29.8027 33.472 31.5093 31.8507 32.704 29.76C33.9413 27.6693 34.56 25.216 34.56 22.4C34.56 19.5413 33.9413 17.088 32.704 15.04C31.5093 12.9493 29.8027 11.3493 27.584 10.24C25.408 9.088 22.8267 8.512 19.84 8.512H10.368V36.288Z" fill="#FAFAFA"/>
<circle cx="53.056" cy="40.8" r="4" fill="#4F46E5"/>
</svg>
