<svg width="109" height="44" viewBox="0 0 109 44" fill="none" xmlns="http://www.w3.org/2000/svg">
<path d="M82.4165 0.7583C82.9273 0.272774 83.62 0 84.3424 0H102.46C104.881 0 106.098 2.77836 104.392 4.4116L64.0141 43.0734C63.5029 43.5629 62.8071 43.8382 62.0814 43.8382H43.6739C41.2479 43.8382 40.0328 41.0507 41.748 39.4201L82.4165 0.7583Z" fill="#01EE9F"/>
<path d="M84.3422 44C81.9161 44 80.7011 41.2121 82.4166 39.5816L104.351 18.7346C106.067 17.1041 109 18.2589 109 20.5647V41.4118C109 42.8412 107.781 44 106.277 44H84.3422Z" fill="#01EE9F"/>
<path d="M41.4714 0.7583C41.9821 0.272774 42.6749 0 43.3972 0H61.5146C63.9359 0 65.1531 2.77836 63.4473 4.4116L23.069 43.0734C22.5577 43.5629 21.862 43.8382 21.1362 43.8382H2.72871C0.302718 43.8382 -0.912384 41.0507 0.802842 39.4201L41.4714 0.7583Z" fill="#01EE9F"/>
</svg>
