<svg width="56" height="60" viewBox="0 0 56 60" fill="none" xmlns="http://www.w3.org/2000/svg">
<g clip-path="url(#clip0_352_122)">
<path d="M1.3147 15.9477L6.27382 18.8316L31.8252 4.06409L26.813 1.18011L1.3147 15.9477Z" fill="#FAFAFA"/>
<path fill-rule="evenodd" clip-rule="evenodd" d="M26.5844 0.784832C26.654 0.74468 26.7329 0.723541 26.8132 0.723541C26.8935 0.723541 26.9724 0.74468 27.0419 0.784832L32.0541 3.66881C32.1241 3.70884 32.1822 3.76664 32.2227 3.83638C32.2631 3.90611 32.2844 3.98529 32.2844 4.0659C32.2844 4.14651 32.2631 4.2257 32.2227 4.29543C32.1822 4.36516 32.1241 4.42297 32.0541 4.463L6.50458 19.2287C6.43481 19.2692 6.35558 19.2905 6.27492 19.2905C6.19425 19.2905 6.11503 19.2692 6.04526 19.2287L1.08614 16.3411C1.0166 16.3009 0.958856 16.2432 0.918707 16.1736C0.878558 16.1041 0.857422 16.0252 0.857422 15.9449C0.857422 15.8646 0.878558 15.7857 0.918707 15.7162C0.958856 15.6466 1.0166 15.5889 1.08614 15.5487L26.5844 0.783002V0.784832ZM26.8132 1.71078L2.22985 15.9477L6.27766 18.301L30.9086 4.0659L26.8132 1.71078Z" fill="#09090B"/>
<path d="M1.3147 15.9477V45.4773L6.32871 48.3613L6.27382 18.8317L1.3147 15.9477Z" fill="#FAFAFA"/>
<path fill-rule="evenodd" clip-rule="evenodd" d="M1.08824 15.5487C1.15778 15.5086 1.23667 15.4874 1.31698 15.4874C1.39728 15.4874 1.47617 15.5086 1.54572 15.5487L6.50484 18.4345C6.57425 18.4746 6.63191 18.5322 6.67206 18.6016C6.7122 18.6709 6.73342 18.7496 6.73358 18.8298L6.78665 48.3612C6.78732 48.4421 6.76658 48.5216 6.72653 48.5918C6.68648 48.662 6.62855 48.7203 6.55865 48.7608C6.48874 48.8014 6.40934 48.8226 6.32853 48.8225C6.24772 48.8224 6.16839 48.8009 6.09859 48.7602L1.08824 45.8744C1.01822 45.8344 0.960014 45.7766 0.919523 45.7068C0.879032 45.6371 0.857692 45.5579 0.857666 45.4773V15.9476C0.857692 15.867 0.879032 15.7878 0.919523 15.7181C0.960014 15.6483 1.01822 15.5887 1.08824 15.5487ZM1.77446 16.7437V45.2119L5.86802 47.5689L5.81678 19.0951L1.77446 16.7437Z" fill="#09090B"/>
<path d="M6.27441 18.8316L31.8258 4.06406V33.5973L6.32748 48.3631L6.27624 18.8298L6.27441 18.8316Z" fill="#09090B"/>
<path fill-rule="evenodd" clip-rule="evenodd" d="M32.0542 3.6688C32.1239 3.70903 32.1817 3.76693 32.2219 3.83665C32.2621 3.90636 32.2831 3.98544 32.283 4.0659V33.5974C32.2828 33.6775 32.2616 33.7562 32.2214 33.8256C32.1813 33.8949 32.1236 33.9526 32.0542 33.9926L6.55777 48.7602C6.48812 48.8008 6.40895 48.8223 6.3283 48.8225C6.24765 48.8227 6.16838 48.8016 6.09852 48.7613C6.02867 48.721 5.97072 48.6629 5.93053 48.593C5.89035 48.5231 5.86937 48.4437 5.86972 48.3631L5.81665 18.8316C5.81649 18.7512 5.83756 18.6721 5.87772 18.6024C5.91788 18.5327 5.97571 18.4748 6.04539 18.4345L31.5949 3.6688C31.6645 3.62865 31.7434 3.60751 31.8237 3.60751C31.904 3.60751 31.9847 3.62865 32.0542 3.6688ZM6.73162 19.0951L6.78652 47.5689L31.368 33.332V4.85826L6.73711 19.0951H6.73162Z" fill="#09090B"/>
<path d="M10.095 21.0001L15.0541 23.8859L40.6036 9.11835L35.5933 6.23438L10.095 21.0001Z" fill="#FAFAFA"/>
<path fill-rule="evenodd" clip-rule="evenodd" d="M35.3625 5.83912C35.4321 5.79897 35.5109 5.77783 35.5912 5.77783C35.6716 5.77783 35.7504 5.79897 35.82 5.83912L40.834 8.7231C40.904 8.76313 40.9621 8.82093 41.0026 8.89067C41.043 8.9604 41.0643 9.03958 41.0643 9.12019C41.0643 9.20081 41.043 9.27999 41.0026 9.34972C40.9621 9.41945 40.904 9.47726 40.834 9.51729L15.2845 24.283C15.2145 24.3239 15.1349 24.3454 15.0539 24.3454C14.9729 24.3454 14.8933 24.3239 14.8233 24.283L9.86422 21.3972C9.79468 21.3571 9.73693 21.2993 9.69678 21.2298C9.65663 21.1602 9.6355 21.0813 9.6355 21.001C9.6355 20.9207 9.65663 20.8418 9.69678 20.7723C9.73693 20.7028 9.79468 20.645 9.86422 20.6049L35.3625 5.83912ZM35.5931 6.76507L11.0079 21.0019L15.0557 23.3552L39.6866 9.12019L35.5931 6.76507Z" fill="#09090B"/>
<path d="M10.095 21.0001V50.5334L15.1072 53.4174L15.0541 23.8878L10.095 21.0001Z" fill="#FAFAFA"/>
<path fill-rule="evenodd" clip-rule="evenodd" d="M9.86595 20.603C9.93571 20.5625 10.0149 20.5412 10.0956 20.5412C10.1763 20.5412 10.2555 20.5625 10.3253 20.603L15.2844 23.4888C15.3538 23.5289 15.4115 23.5865 15.4516 23.6559C15.4917 23.7252 15.513 23.8039 15.5131 23.8841L15.5644 53.4155C15.5648 53.4961 15.5441 53.5753 15.5041 53.6452C15.4641 53.7152 15.4064 53.7733 15.3368 53.8138C15.2672 53.8543 15.1881 53.8756 15.1076 53.8758C15.027 53.8759 14.9479 53.8547 14.8781 53.8145L9.86595 50.9287C9.79627 50.8884 9.73843 50.8305 9.69827 50.7608C9.65811 50.6911 9.63705 50.612 9.63721 50.5316V21.0001C9.63705 20.9197 9.65811 20.8406 9.69827 20.7709C9.73843 20.7011 9.79627 20.6432 9.86595 20.603ZM10.554 21.798V50.2662L14.6457 52.6232L14.5963 24.1494L10.554 21.798Z" fill="#09090B"/>
<path d="M15.054 23.8859L40.6035 9.11835V38.6516L15.107 53.4174L15.054 23.8859Z" fill="#09090B"/>
<path fill-rule="evenodd" clip-rule="evenodd" d="M40.8322 8.7231C40.9022 8.76309 40.9604 8.82089 41.0009 8.89062C41.0414 8.96035 41.0627 9.03955 41.0628 9.12019V38.6516C41.0626 38.7318 41.0414 38.8105 41.0012 38.8799C40.9611 38.9492 40.9034 39.0068 40.834 39.0469L15.3357 53.8145C15.2661 53.8551 15.1869 53.8766 15.1063 53.8768C15.0256 53.877 14.9463 53.8559 14.8765 53.8156C14.8066 53.7753 14.7487 53.7172 14.7085 53.6473C14.6683 53.5773 14.6473 53.498 14.6477 53.4174L14.5964 23.8859C14.5963 23.8055 14.6173 23.7264 14.6575 23.6567C14.6977 23.5869 14.7555 23.5291 14.8252 23.4888L40.3747 8.7231C40.4442 8.68294 40.5231 8.6618 40.6034 8.6618C40.6837 8.6618 40.7626 8.68294 40.8322 8.7231ZM15.5151 24.1494L15.5645 52.6232L40.1478 38.3863V9.91255L15.5151 24.1494Z" fill="#09090B"/>
<path d="M15.063 28.8267L24.3627 58.823L29.6677 57.0864L19.9983 27.0535L15.063 28.8267Z" fill="#FAFAFA"/>
<path fill-rule="evenodd" clip-rule="evenodd" d="M20.1997 26.6436C20.2553 26.6705 20.3049 26.7083 20.3454 26.7549C20.386 26.8014 20.4167 26.8557 20.4358 26.9145L30.1033 56.9455C30.1408 57.0607 30.1311 57.1862 30.0762 57.2943C30.0213 57.4024 29.9257 57.4842 29.8105 57.5219L24.5037 59.2585C24.4459 59.2775 24.3849 59.2848 24.3243 59.2799C24.2637 59.2751 24.2047 59.2582 24.1507 59.2302C24.0966 59.2023 24.0487 59.1639 24.0098 59.1172C23.9708 59.0705 23.9415 59.0165 23.9236 58.9584L14.6257 28.9621C14.5905 28.8493 14.6004 28.7271 14.6533 28.6214C14.7062 28.5156 14.7979 28.4344 14.9094 28.3949L19.8447 26.6235C19.9024 26.6024 19.9637 26.5932 20.025 26.5964C20.0863 26.5995 20.1463 26.615 20.2015 26.6418L20.1997 26.6436ZM15.6322 29.1104L24.6629 58.2429L29.0913 56.7918L19.7056 27.6464L15.6304 29.1104H15.6322Z" fill="#09090B"/>
<path d="M40.5999 15.1791L49.8996 45.1754L55.2045 43.4387L45.5352 13.4077L40.5999 15.1791Z" fill="#FAFAFA"/>
<path fill-rule="evenodd" clip-rule="evenodd" d="M45.7384 12.996C45.7936 13.023 45.8429 13.061 45.8831 13.1075C45.9234 13.154 45.9538 13.2082 45.9726 13.2668L55.6402 43.2997C55.6771 43.4147 55.6671 43.5397 55.6122 43.6473C55.5574 43.755 55.4622 43.8365 55.3474 43.8742L50.0406 45.6109C49.9829 45.6296 49.9221 45.6366 49.8617 45.6316C49.8013 45.6266 49.7425 45.6097 49.6887 45.5818C49.6349 45.5538 49.5871 45.5155 49.5483 45.469C49.5094 45.4224 49.4802 45.3687 49.4623 45.3107L40.1626 15.3145C40.1274 15.2016 40.1373 15.0795 40.1901 14.9737C40.243 14.868 40.3348 14.7868 40.4462 14.7472L45.3816 12.9758C45.4393 12.9551 45.5007 12.9462 45.562 12.9496C45.6233 12.9531 45.6833 12.9688 45.7384 12.996ZM41.169 15.4627L50.1998 44.5952L54.6282 43.1459L45.2443 13.9988L41.169 15.4627Z" fill="#09090B"/>
<path d="M19.9983 27.0554L45.535 13.4077L55.2062 43.4387L29.6695 57.0864L20.0001 27.0535L19.9983 27.0554Z" fill="#FAFAFA"/>
<path fill-rule="evenodd" clip-rule="evenodd" d="M45.7091 12.9831C45.7711 13.0083 45.8268 13.0467 45.8723 13.0957C45.9179 13.1447 45.9521 13.2031 45.9726 13.2668L55.6401 43.2996C55.673 43.4016 55.6689 43.5119 55.6288 43.6112C55.5887 43.7105 55.515 43.7926 55.4205 43.8431L29.8838 57.4908C29.8247 57.5227 29.7591 57.5413 29.692 57.545C29.6248 57.5488 29.5577 57.5377 29.4953 57.5125C29.4329 57.4874 29.3768 57.4488 29.3311 57.3995C29.2853 57.3501 29.251 57.2914 29.2305 57.2273L19.563 27.1944C19.5302 27.0924 19.5342 26.9822 19.5743 26.8829C19.6145 26.7836 19.6882 26.7015 19.7826 26.6509L45.3193 13.0014C45.3784 12.9695 45.4438 12.951 45.5108 12.9472C45.5779 12.9434 45.645 12.9545 45.7073 12.9795L45.7091 12.9831ZM20.553 27.2786L29.9351 56.4239L54.6501 43.2155L45.2699 14.0701L20.5548 27.2786H20.553Z" fill="#09090B"/>
<path d="M19.9983 27.0554L15.063 28.8267L40.5997 15.1791L45.535 13.4077L19.9983 27.0535V27.0554Z" fill="#FAFAFA"/>
<path fill-rule="evenodd" clip-rule="evenodd" d="M45.9544 13.2211C46.002 13.3268 46.0076 13.4466 45.9703 13.5563C45.9329 13.666 45.8553 13.7574 45.7531 13.8121L20.2127 27.458C20.1933 27.4686 20.1731 27.4778 20.1523 27.4854L15.217 29.2586C15.1061 29.3079 14.9802 29.3111 14.8669 29.2675C14.7537 29.2239 14.6624 29.1371 14.6131 29.0262C14.5639 28.9153 14.5607 28.7894 14.6043 28.6761C14.6478 28.5629 14.7346 28.4716 14.8455 28.4223L40.3841 14.7747C40.4041 14.7641 40.4249 14.7549 40.4463 14.7472L45.3816 12.9759C45.4904 12.9368 45.6099 12.9404 45.7162 12.9859C45.8225 13.0314 45.9076 13.1154 45.9544 13.2211Z" fill="#09090B"/>
<path d="M34.5189 24.6088L32.7969 25.489L31.0768 26.3692L29.6824 47.2158L33.0677 48.7291L35.648 32.0511L49.1437 40.5109L50.227 36.7174L34.5189 24.6088Z" fill="#09090B"/>
<path fill-rule="evenodd" clip-rule="evenodd" d="M34.3121 24.2007C34.3892 24.1615 34.4759 24.145 34.5621 24.1531C34.6483 24.1612 34.7304 24.1935 34.7989 24.2464L50.507 36.3533C50.5794 36.4094 50.6333 36.486 50.6617 36.5731C50.6901 36.6602 50.6916 36.7538 50.6662 36.8419L49.5865 40.6371C49.5674 40.706 49.5324 40.7694 49.4843 40.8223C49.4363 40.8752 49.3765 40.916 49.3098 40.9417C49.2431 40.9673 49.1713 40.9769 49.1002 40.9698C49.0291 40.9627 48.9606 40.939 48.9003 40.9006L35.9938 32.8087L33.5216 48.7986C33.5109 48.8684 33.4842 48.9347 33.4436 48.9925C33.403 49.0502 33.3496 49.0978 33.2876 49.1314C33.2256 49.1651 33.1566 49.184 33.0861 49.1865C33.0156 49.1891 32.9454 49.1754 32.8811 49.1463L29.4957 47.6348C29.4101 47.5968 29.3382 47.5334 29.2898 47.4532C29.2413 47.373 29.2187 47.2799 29.2249 47.1865L30.6193 26.3399C30.6241 26.2607 30.6494 26.1842 30.6927 26.1178C30.736 26.0514 30.7959 25.9974 30.8663 25.9611L34.3121 24.2007ZM31.516 26.6601L30.1618 46.9284L32.7054 48.0648L35.1941 31.9797C35.2056 31.9047 35.2355 31.8338 35.2812 31.7732C35.3269 31.7127 35.3869 31.6645 35.4559 31.6329C35.5249 31.6013 35.6006 31.5874 35.6763 31.5923C35.752 31.5973 35.8252 31.621 35.8895 31.6613L48.871 39.799L49.7 36.8894L34.4695 25.1504L31.516 26.6601Z" fill="#09090B"/>
</g>
<defs>
<clipPath id="clip0_352_122">
<rect width="54.9375" height="58.5938" fill="white" transform="translate(0.818359 0.703125)"/>
</clipPath>
</defs>
</svg>
