<svg width="60" height="58" viewBox="0 0 60 58" fill="none" xmlns="http://www.w3.org/2000/svg">
<g clip-path="url(#clip0_352_149)">
<path d="M29.9121 0.5C13.7965 0.5 0.728516 13.5657 0.728516 29.6836C0.728516 42.5779 9.09048 53.517 20.6861 57.376C22.1445 57.6461 22.6801 56.7429 22.6801 55.972C22.6801 55.2762 22.6529 52.9771 22.6405 50.5386C14.5214 52.304 12.8082 47.0953 12.8082 47.0953C11.4807 43.722 9.56793 42.8253 9.56793 42.8253C6.92023 41.0139 9.76752 41.051 9.76752 41.051C12.6981 41.257 14.2412 44.0585 14.2412 44.0585C16.8441 48.5201 21.0683 47.2301 22.7337 46.4847C22.9955 44.5982 23.752 43.311 24.5865 42.5822C18.1045 41.8441 11.2903 39.3417 11.2903 28.1595C11.2903 24.9734 12.4303 22.3699 14.2973 20.3262C13.9943 19.591 12.9954 16.6229 14.58 12.603C14.58 12.603 17.0306 11.8187 22.6076 15.5945C24.9353 14.9477 27.4319 14.6236 29.9121 14.6126C32.3923 14.6236 34.8907 14.9477 37.223 15.5945C42.7933 11.8187 45.2405 12.603 45.2405 12.603C46.829 16.6229 45.8297 19.591 45.5266 20.3262C47.3978 22.3699 48.53 24.9732 48.53 28.1595C48.53 39.3683 41.7029 41.8365 35.2045 42.5589C36.2512 43.4646 37.1839 45.2407 37.1839 47.9632C37.1839 51.8679 37.15 55.0107 37.15 55.972C37.15 56.7486 37.6753 57.6587 39.1548 57.3721C50.744 53.5088 59.0954 42.5735 59.0954 29.6836C59.0954 13.5657 46.0293 0.5 29.9121 0.5Z" fill="#FAFAFA"/>
<path d="M11.6588 42.0727C11.5948 42.2176 11.3663 42.2611 11.1587 42.1617C10.947 42.0665 10.828 41.8688 10.8967 41.7232C10.9596 41.574 11.188 41.5323 11.3993 41.6326C11.6115 41.7275 11.7323 41.9271 11.6588 42.0727ZM13.0944 43.3535C12.9552 43.4826 12.6831 43.4226 12.4984 43.2187C12.3075 43.0152 12.2718 42.7433 12.413 42.6122C12.5565 42.4833 12.8204 42.5435 13.0118 42.7472C13.2026 42.953 13.2397 43.2233 13.0942 43.3537M14.0793 44.9923C13.9003 45.1166 13.6078 45.0001 13.4272 44.7405C13.2484 44.4812 13.2484 44.1699 13.4311 44.0452C13.6123 43.9205 13.9003 44.0326 14.0834 44.2901C14.2619 44.554 14.2619 44.8653 14.079 44.9925M15.7446 46.8904C15.5846 47.0667 15.244 47.0195 14.9946 46.7787C14.7396 46.5434 14.6684 46.2095 14.8289 46.033C14.9907 45.8563 15.3333 45.906 15.5846 46.1447C15.838 46.3796 15.9151 46.716 15.7446 46.8904ZM17.897 47.5313C17.8267 47.7597 17.4985 47.8636 17.168 47.7666C16.838 47.6666 16.6219 47.3988 16.6885 47.1678C16.7572 46.9378 17.0868 46.8295 17.4198 46.9335C17.7494 47.033 17.9657 47.2988 17.897 47.5313ZM20.347 47.803C20.3552 48.0438 20.0748 48.2434 19.7278 48.2477C19.3788 48.2553 19.0966 48.0605 19.0929 47.8238C19.0929 47.5807 19.3669 47.383 19.7157 47.3773C20.0627 47.3704 20.347 47.5638 20.347 47.803ZM22.7534 47.7107C22.7951 47.9456 22.5538 48.1868 22.2094 48.2509C21.8706 48.3127 21.5571 48.1678 21.5138 47.935C21.4717 47.6943 21.7175 47.4533 22.0556 47.3908C22.4007 47.3308 22.7095 47.472 22.7534 47.7107Z" fill="#FAFAFA"/>
</g>
<defs>
<clipPath id="clip0_352_149">
<rect width="58.5938" height="57" fill="white" transform="translate(0.728516 0.5)"/>
</clipPath>
</defs>
</svg>
