<svg width="57" height="60" viewBox="0 0 57 60" fill="none" xmlns="http://www.w3.org/2000/svg">
<g clip-path="url(#clip0_352_147)">
<path d="M56.5958 14.0716C56.6168 14.1492 56.6275 14.2293 56.6277 14.3097V26.8102C56.6277 26.9706 56.5854 27.1282 56.505 27.267C56.4246 27.4059 56.3089 27.521 56.1697 27.6008L45.6779 33.6414V45.6144C45.6779 45.9402 45.5047 46.241 45.2221 46.4051L23.3213 59.0126C23.2711 59.0411 23.2165 59.0594 23.1618 59.0787C23.1413 59.0856 23.1219 59.0981 23.1002 59.1038C22.9471 59.1441 22.7862 59.1441 22.6331 59.1038C22.6081 59.0969 22.5853 59.0833 22.5613 59.0742C22.5112 59.0559 22.4588 59.04 22.411 59.0126L0.514642 46.4051C0.375541 46.3252 0.259962 46.21 0.179554 46.0712C0.0991463 45.9324 0.0567508 45.7748 0.0566406 45.6144L0.0566406 8.11301C0.0566406 8.03098 0.0680337 7.95123 0.0885412 7.87375C0.095377 7.84755 0.111327 7.82362 0.120442 7.79742C0.137531 7.74957 0.153482 7.70058 0.178546 7.65615C0.195636 7.62652 0.220701 7.6026 0.241208 7.57525C0.267412 7.5388 0.291338 7.5012 0.322099 7.4693C0.348303 7.44309 0.382482 7.42373 0.412104 7.40094C0.445144 7.3736 0.474766 7.34398 0.512363 7.32233L11.4622 1.01855C11.6009 0.938775 11.758 0.89679 11.918 0.89679C12.0779 0.89679 12.235 0.938775 12.3737 1.01855L23.3224 7.32233H23.3247C23.3611 7.34511 23.3919 7.3736 23.4249 7.3998C23.4546 7.42259 23.4876 7.44309 23.5138 7.46816C23.5457 7.5012 23.5685 7.5388 23.5958 7.57525C23.6152 7.6026 23.6414 7.62652 23.6574 7.65615C23.6836 7.70172 23.6984 7.74957 23.7166 7.79742C23.7257 7.82362 23.7417 7.84755 23.7485 7.87489C23.7695 7.95253 23.7802 8.03258 23.7804 8.11301V31.536L32.904 26.2827V14.3086C32.904 14.2288 32.9154 14.1479 32.9359 14.0716C32.9438 14.0442 32.9587 14.0203 32.9678 13.9941C32.986 13.9463 33.0019 13.8973 33.027 13.8528C33.0441 13.8232 33.0692 13.7993 33.0885 13.7719C33.1159 13.7355 33.1387 13.6979 33.1706 13.666C33.1968 13.6398 33.2298 13.6204 33.2594 13.5976C33.2936 13.5703 33.3232 13.5407 33.3597 13.519L44.3107 7.21523C44.4493 7.13535 44.6065 7.0933 44.7664 7.0933C44.9264 7.0933 45.0835 7.13535 45.2221 7.21523L56.1709 13.519C56.2096 13.5418 56.2392 13.5703 56.2734 13.5965C56.3019 13.6193 56.3349 13.6398 56.3611 13.6648C56.393 13.6979 56.4158 13.7355 56.4432 13.7719C56.4637 13.7993 56.4887 13.8232 56.5047 13.8528C56.5309 13.8973 56.5457 13.9463 56.5639 13.9941C56.5742 14.0203 56.589 14.0442 56.5958 14.0716ZM54.8026 26.2827V15.8876L50.9711 18.0933L45.6779 21.141V31.536L54.8037 26.2827H54.8026ZM43.8538 45.0869V34.685L38.6472 37.6586L23.7793 46.1442V56.644L43.8538 45.0869ZM1.88181 9.69095V45.0869L21.9541 56.6429V46.1453L11.4679 40.2107L11.4645 40.2084L11.46 40.2061C11.4246 40.1856 11.395 40.156 11.362 40.1309C11.3335 40.1081 11.3005 40.0899 11.2754 40.0648L11.2731 40.0614C11.2435 40.0329 11.223 39.9976 11.1979 39.9657C11.1751 39.935 11.1478 39.9088 11.1296 39.8769L11.1284 39.8734C11.1079 39.8393 11.0954 39.7982 11.0806 39.7595C11.0658 39.7253 11.0464 39.6934 11.0373 39.657C11.0259 39.6137 11.0236 39.567 11.019 39.5225C11.0145 39.4884 11.0054 39.4542 11.0054 39.42V14.9443L5.71329 11.8955L1.88181 9.69095ZM11.9191 2.86195L2.79667 8.11301L11.9168 13.3641L21.0381 8.11187L11.9168 2.86195H11.9191ZM16.6632 35.6329L21.9552 32.5864V9.69095L18.1238 11.8966L12.8305 14.9443V37.8398L16.6632 35.6329ZM44.7664 9.05863L35.6451 14.3097L44.7664 19.5608L53.8866 14.3086L44.7664 9.05863ZM43.8538 21.141L38.5606 18.0933L34.7291 15.8876V26.2827L40.0212 29.3292L43.8538 31.536V21.141ZM22.8655 44.5662L36.2444 36.9283L42.9321 33.1117L33.8177 27.864L23.3235 33.9058L13.7591 39.412L22.8655 44.5662Z" fill="#FAFAFA"/>
</g>
<defs>
<clipPath id="clip0_352_147">
<rect width="56.6719" height="58.5938" fill="white" transform="translate(0.0566406 0.703125)"/>
</clipPath>
</defs>
</svg>
