<svg width="65" height="64" viewBox="0 0 65 64" fill="none" xmlns="http://www.w3.org/2000/svg">
<g clip-path="url(#clip0_352_107)">
<path d="M30.7561 0.0499825C30.6186 0.0624813 30.1812 0.106227 29.7875 0.137474C20.7071 0.956144 12.2017 5.85567 6.8147 13.3862C3.815 17.5733 1.89643 22.3228 1.17151 27.3536C0.91528 29.1096 0.884033 29.6283 0.884033 32.0094C0.884033 34.3904 0.91528 34.9091 1.17151 36.6652C2.90884 48.6702 11.4518 58.7568 23.0381 62.4939C25.1129 63.1626 27.3002 63.6188 29.7875 63.8938C30.7561 64 34.9432 64 35.9119 63.8938C40.2052 63.4188 43.8423 62.3564 47.4295 60.5253C47.9794 60.2441 48.0857 60.1691 48.0107 60.1066C47.9607 60.0691 45.6172 56.9257 42.8049 53.1261L37.6929 46.2205L31.2873 36.7402C27.7627 31.5282 24.8629 27.2661 24.8379 27.2661C24.8129 27.2598 24.7879 31.4719 24.7754 36.6152C24.7567 45.6205 24.7505 45.983 24.638 46.1955C24.4755 46.5017 24.3505 46.6267 24.088 46.7642C23.888 46.8642 23.7131 46.8829 22.7694 46.8829H21.6883L21.4008 46.7017C21.2133 46.5829 21.0758 46.4267 20.9821 46.2455L20.8508 45.9642L20.8633 33.4342L20.8821 20.8979L21.0758 20.6542C21.1758 20.523 21.3883 20.3543 21.5383 20.273C21.7945 20.148 21.8945 20.1355 22.9756 20.1355C24.2505 20.1355 24.463 20.1855 24.7942 20.548C24.8879 20.648 28.3564 25.8725 32.5059 32.1656C36.6555 38.4587 42.33 47.0516 45.1172 51.27L50.1792 58.938L50.4354 58.7693C52.704 57.2944 55.1037 55.1946 57.0036 53.0073C61.0469 48.364 63.6529 42.7021 64.5278 36.6652C64.784 34.9091 64.8153 34.3904 64.8153 32.0094C64.8153 29.6283 64.784 29.1096 64.5278 27.3536C62.7905 15.3485 54.2476 5.26197 42.6612 1.52484C40.6177 0.862403 38.4429 0.406198 36.0056 0.131225C35.4057 0.0687307 31.2748 -1.25807e-05 30.7561 0.0499825ZM43.8423 19.3856C44.1423 19.5356 44.386 19.8231 44.4735 20.123C44.5235 20.2855 44.536 23.7602 44.5235 31.5907L44.5048 42.8271L42.5237 39.7899L40.5364 36.7527V28.5847C40.5364 23.304 40.5614 20.3355 40.5989 20.1918C40.6989 19.8418 40.9176 19.5668 41.2176 19.4043C41.4738 19.2731 41.5676 19.2606 42.5487 19.2606C43.4736 19.2606 43.6361 19.2731 43.8423 19.3856Z" fill="#FAFAFA"/>
<path d="M49.8668 59.0754C49.648 59.2129 49.5793 59.3067 49.773 59.2004C49.9105 59.1192 50.1355 58.9505 50.098 58.9442C50.0793 58.9442 49.973 59.0067 49.8668 59.0754ZM49.4356 59.3567C49.3231 59.4442 49.3231 59.4504 49.4606 59.3817C49.5356 59.3442 49.5981 59.3004 49.5981 59.2879C49.5981 59.2379 49.5668 59.2504 49.4356 59.3567ZM49.1231 59.5442C49.0106 59.6316 49.0106 59.6379 49.1481 59.5692C49.2231 59.5317 49.2856 59.4879 49.2856 59.4754C49.2856 59.4254 49.2543 59.4379 49.1231 59.5442ZM48.8106 59.7316C48.6981 59.8191 48.6981 59.8254 48.8356 59.7566C48.9106 59.7191 48.9731 59.6754 48.9731 59.6629C48.9731 59.6129 48.9419 59.6254 48.8106 59.7316ZM48.3357 59.9816C48.0982 60.1066 48.1107 60.1566 48.3482 60.0379C48.4544 59.9816 48.5357 59.9254 48.5357 59.9129C48.5357 59.8691 48.5294 59.8754 48.3357 59.9816Z" fill="#FAFAFA"/>
</g>
<defs>
<clipPath id="clip0_352_107">
<rect width="64" height="64" fill="white" transform="translate(0.849609)"/>
</clipPath>
</defs>
</svg>
