<svg width="107" height="52" viewBox="0 0 107 52" fill="none" xmlns="http://www.w3.org/2000/svg">
<path fill-rule="evenodd" clip-rule="evenodd" d="M21.836 17.6888C25.1225 17.6888 27.3138 18.2955 28.409 19.5089C29.5033 20.7223 29.7642 22.8059 29.1916 25.7571C28.5928 28.8308 27.4407 31.0247 25.7336 32.3396C24.0264 33.6546 21.4281 34.3112 17.9402 34.3112H12.677L15.9074 17.6888H21.836ZM0.755859 51.1384H9.40715L11.4601 40.5795H18.8709C22.1407 40.5795 24.831 40.2354 26.9426 39.5482C29.0542 38.8609 30.9741 37.7097 32.7014 36.0927C34.1511 34.7612 35.3242 33.2904 36.2225 31.683C37.1198 30.0757 37.7571 28.3029 38.1345 26.3638C39.0502 21.6555 38.3595 17.9882 36.064 15.3619C33.7694 12.7346 30.1179 11.4214 25.1129 11.4214H8.47566L0.755859 51.1384ZM44.4886 0.861633H53.0724L51.0203 11.4214H58.6684C63.4781 11.4214 66.7988 12.2601 68.625 13.9384C70.4512 15.6166 70.9983 18.3367 70.2682 22.0968L66.6771 40.5795H57.9566L61.3709 23.0055C61.7587 21.0059 61.6169 19.6429 60.9419 18.9153C60.2669 18.1887 58.8303 17.8245 56.6347 17.8245H49.7746L45.3526 40.5795H36.7688L44.4886 0.861633ZM89.3672 17.6888C92.6537 17.6888 94.8441 18.2955 95.9402 19.5089C97.0345 20.7223 97.2945 22.8059 96.7219 25.7571C96.1249 28.8308 94.9728 31.0247 93.2648 32.3396C91.5585 33.6546 88.9593 34.3112 85.4732 34.3112H80.2099L83.4395 17.6888H89.3672ZM68.2853 51.1384H76.9374L78.9895 40.5795H86.4003C89.671 40.5795 92.3613 40.2354 94.4729 39.5482C96.5845 38.8609 98.5044 37.7097 100.232 36.0927C101.681 34.7612 102.855 33.2904 103.752 31.683C104.649 30.0757 105.287 28.3029 105.666 26.3638C106.58 21.6555 105.89 17.9882 103.595 15.3619C101.299 12.7346 97.6482 11.4214 92.6432 11.4214H76.006L68.2853 51.1384Z" fill="#FAFAFA"/>
</svg>
