<svg width="58" height="52" viewBox="0 0 58 52" fill="none" xmlns="http://www.w3.org/2000/svg">
<path d="M57.8496 26.0059C57.8496 22.1736 53.0504 18.5418 45.6925 16.2896C47.3905 8.79015 46.6358 2.8236 43.3106 0.913362C42.5441 0.465282 41.6479 0.253033 40.6692 0.253033V2.88256C41.2117 2.88256 41.6479 2.98869 42.0135 3.18914C43.6171 4.10889 44.3129 7.61099 43.7704 12.1154C43.6407 13.2238 43.4285 14.3912 43.1691 15.5821C40.8579 15.0161 38.3345 14.5798 35.6814 14.2968C34.0895 12.1154 32.4387 10.1344 30.7761 8.40103C34.6202 4.82817 38.2284 2.87077 40.681 2.87077V0.241241C37.4383 0.241241 33.1934 2.5524 28.9012 6.56154C24.6091 2.57598 20.3641 0.288408 17.1214 0.288408V2.91794C19.5623 2.91794 23.1823 4.86355 27.0264 8.41282C25.3755 10.1462 23.7247 12.1154 22.1564 14.2968C19.4915 14.5798 16.9681 15.0161 14.657 15.5939C14.3858 14.4147 14.1853 13.271 14.0438 12.1743C13.4896 7.66995 14.1735 4.16785 15.7654 3.23631C16.1191 3.02406 16.579 2.92973 17.1214 2.92973V0.300199C16.1309 0.300199 15.2348 0.512448 14.4565 0.960529C11.1431 2.87077 10.4002 8.82553 12.11 16.3014C4.7756 18.5654 0 22.1854 0 26.0059C0 29.8382 4.79918 33.47 12.1571 35.7222C10.4592 43.2216 11.2138 49.1882 14.539 51.0984C15.3055 51.5465 16.2017 51.7588 17.1922 51.7588C20.4349 51.7588 24.6798 49.4476 28.972 45.4385C33.2641 49.424 37.5091 51.7116 40.7518 51.7116C41.7423 51.7116 42.6384 51.4993 43.4167 51.0513C46.7301 49.141 47.473 43.1863 45.7632 35.7104C53.074 33.4582 57.8496 29.8264 57.8496 26.0059ZM42.4969 18.1409C42.0606 19.662 41.5182 21.2303 40.9051 22.7986C40.4216 21.8552 39.9146 20.9119 39.3604 19.9686C38.818 19.0253 38.2402 18.1055 37.6624 17.2094C39.3368 17.457 40.9522 17.7636 42.4969 18.1409ZM37.0964 30.699C36.1766 32.2908 35.2333 33.8001 34.2546 35.2033C32.4977 35.3566 30.7171 35.4392 28.9248 35.4392C27.1443 35.4392 25.3637 35.3566 23.6186 35.2151C22.6399 33.8119 21.6848 32.3144 20.765 30.7343C19.8689 29.1896 19.0552 27.6213 18.3124 26.0413C19.0434 24.4612 19.8689 22.8811 20.7532 21.3364C21.673 19.7446 22.6163 18.2352 23.595 16.832C25.3519 16.6787 27.1325 16.5962 28.9248 16.5962C30.7053 16.5962 32.4859 16.6787 34.231 16.8202C35.2097 18.2234 36.1649 19.721 37.0846 21.301C37.9808 22.8457 38.7944 24.414 39.5372 25.9941C38.7944 27.5742 37.9808 29.1543 37.0964 30.699ZM40.9051 29.166C41.5418 30.7461 42.0842 32.3262 42.5323 33.8591C40.9876 34.2364 39.3604 34.5548 37.6742 34.8024C38.252 33.8945 38.8298 32.9629 39.3722 32.0078C39.9146 31.0645 40.4216 30.1094 40.9051 29.166ZM28.9484 41.7477C27.8518 40.6157 26.7552 39.354 25.6703 37.9744C26.7316 38.0215 27.8164 38.0569 28.913 38.0569C30.0214 38.0569 31.118 38.0333 32.1911 37.9744C31.1298 39.354 30.0332 40.6157 28.9484 41.7477ZM20.1754 34.8024C18.501 34.5548 16.8856 34.2482 15.3409 33.8709C15.7772 32.3498 16.3196 30.7815 16.9327 29.2132C17.4162 30.1565 17.9232 31.0999 18.4774 32.0432C19.0316 32.9865 19.5976 33.9063 20.1754 34.8024ZM28.8894 10.2641C29.9861 11.3961 31.0827 12.6578 32.1675 14.0374C31.1063 13.9903 30.0214 13.9549 28.9248 13.9549C27.8164 13.9549 26.7198 13.9785 25.6467 14.0374C26.708 12.6578 27.8046 11.3961 28.8894 10.2641ZM20.1636 17.2094C19.5859 18.1173 19.0081 19.0488 18.4657 20.004C17.9232 20.9473 17.4162 21.8906 16.9327 22.834C16.296 21.2539 15.7536 19.6738 15.3055 18.1409C16.8502 17.7754 18.4774 17.457 20.1636 17.2094ZM9.49224 31.9724C5.31802 30.1919 2.61774 27.8572 2.61774 26.0059C2.61774 24.1546 5.31802 21.8081 9.49224 20.0393C10.5063 19.6031 11.6147 19.2139 12.7585 18.8484C13.4306 21.1595 14.315 23.565 15.4116 26.0295C14.3268 28.4821 13.4542 30.8758 12.7939 33.1752C11.6265 32.8096 10.5181 32.4087 9.49224 31.9724ZM15.8361 48.8226C14.2325 47.9029 13.5368 44.4008 14.0792 39.8964C14.2089 38.788 14.4211 37.6206 14.6805 36.4297C16.9917 36.9957 19.5151 37.432 22.1682 37.715C23.7601 39.8964 25.4109 41.8774 27.0735 43.6108C23.2295 47.1836 19.6212 49.141 17.1686 49.141C16.638 49.1292 16.1899 49.0231 15.8361 48.8226ZM43.8058 39.8374C44.36 44.3418 43.6761 47.8439 42.0842 48.7755C41.7305 48.9877 41.2706 49.0821 40.7282 49.0821C38.2873 49.0821 34.6673 47.1364 30.8233 43.5872C32.4741 41.8538 34.1249 39.8846 35.6932 37.7032C38.3581 37.4202 40.8815 36.9839 43.1926 36.4061C43.4639 37.597 43.6761 38.7408 43.8058 39.8374ZM48.3456 31.9724C47.3315 32.4087 46.2231 32.7979 45.0793 33.1634C44.4072 30.8522 43.5228 28.4468 42.4262 25.9823C43.511 23.5297 44.3836 21.136 45.0439 18.8366C46.2113 19.2021 47.3197 19.6031 48.3574 20.0393C52.5316 21.8199 55.2319 24.1546 55.2319 26.0059C55.2201 27.8572 52.5198 30.2037 48.3456 31.9724Z" fill="#FAFAFA"/>
<path d="M28.9131 31.3947C31.8892 31.3947 34.3018 28.9821 34.3018 26.0059C34.3018 23.0298 31.8892 20.6172 28.9131 20.6172C25.9369 20.6172 23.5243 23.0298 23.5243 26.0059C23.5243 28.9821 25.9369 31.3947 28.9131 31.3947Z" fill="#FAFAFA"/>
</svg>
