<svg width="563" height="120" viewBox="0 0 563 120" fill="none" xmlns="http://www.w3.org/2000/svg">
<path d="M130.571 30.2268H139.674L149.287 53.6814H149.696L159.31 30.2268H168.412V65.1359H161.253V42.4143H160.963L151.929 64.9655H147.054L138.02 42.3291H137.73V65.1359H130.571V30.2268ZM182.346 65.6473C179.699 65.6473 177.409 65.0848 175.477 63.9598C173.557 62.8234 172.074 61.2439 171.028 59.2212C169.983 57.1871 169.46 54.8291 169.46 52.1473C169.46 49.4427 169.983 47.0791 171.028 45.0564C172.074 43.0223 173.557 41.4427 175.477 40.3177C177.409 39.1814 179.699 38.6132 182.346 38.6132C184.994 38.6132 187.278 39.1814 189.199 40.3177C191.13 41.4427 192.619 43.0223 193.665 45.0564C194.71 47.0791 195.233 49.4427 195.233 52.1473C195.233 54.8291 194.71 57.1871 193.665 59.2212C192.619 61.2439 191.13 62.8234 189.199 63.9598C187.278 65.0848 184.994 65.6473 182.346 65.6473ZM182.38 60.0223C183.585 60.0223 184.591 59.6814 185.397 58.9996C186.204 58.3064 186.812 57.3632 187.221 56.17C187.642 54.9768 187.852 53.6189 187.852 52.0962C187.852 50.5734 187.642 49.2155 187.221 48.0223C186.812 46.8291 186.204 45.8859 185.397 45.1927C184.591 44.4996 183.585 44.153 182.38 44.153C181.165 44.153 180.142 44.4996 179.312 45.1927C178.494 45.8859 177.875 46.8291 177.454 48.0223C177.045 49.2155 176.841 50.5734 176.841 52.0962C176.841 53.6189 177.045 54.9768 177.454 56.17C177.875 57.3632 178.494 58.3064 179.312 58.9996C180.142 59.6814 181.165 60.0223 182.38 60.0223ZM219.68 38.9541L210.526 65.1359H202.344L193.191 38.9541H200.861L206.299 57.6871H206.572L211.992 38.9541H219.68ZM230.644 65.6473C227.95 65.6473 225.632 65.1018 223.689 64.0109C221.757 62.9087 220.269 61.3518 219.223 59.3405C218.178 57.3177 217.655 54.9257 217.655 52.1643C217.655 49.4712 218.178 47.1075 219.223 45.0734C220.269 43.0393 221.74 41.4541 223.638 40.3177C225.547 39.1814 227.786 38.6132 230.354 38.6132C232.081 38.6132 233.689 38.8916 235.178 39.4484C236.678 39.9939 237.985 40.8177 239.098 41.92C240.223 43.0223 241.098 44.4087 241.723 46.0791C242.348 47.7382 242.661 49.6814 242.661 51.9087V53.903H220.553V49.403H235.825C235.825 48.3575 235.598 47.4314 235.144 46.6246C234.689 45.8177 234.058 45.1871 233.252 44.7325C232.456 44.2666 231.53 44.0337 230.473 44.0337C229.371 44.0337 228.394 44.2893 227.541 44.8007C226.7 45.3007 226.041 45.9768 225.564 46.8291C225.087 47.67 224.842 48.6075 224.831 49.6416V53.92C224.831 55.2155 225.07 56.3348 225.547 57.278C226.036 58.2212 226.723 58.9484 227.61 59.4598C228.496 59.9712 229.547 60.2268 230.763 60.2268C231.57 60.2268 232.308 60.1132 232.979 59.8859C233.649 59.6587 234.223 59.3177 234.7 58.8632C235.178 58.4087 235.541 57.8518 235.791 57.1927L242.507 57.6359C242.166 59.2496 241.467 60.6587 240.411 61.8632C239.365 63.0564 238.013 63.9882 236.354 64.6587C234.706 65.3177 232.803 65.6473 230.644 65.6473ZM260.349 53.9882V38.9541H267.61V65.1359H260.639V60.3802H260.366C259.775 61.9143 258.792 63.1473 257.417 64.0791C256.054 65.0109 254.389 65.4768 252.423 65.4768C250.673 65.4768 249.133 65.0791 247.804 64.2837C246.474 63.4882 245.434 62.3575 244.684 60.8916C243.946 59.4257 243.571 57.67 243.559 55.6246V38.9541H250.821V54.3291C250.832 55.8746 251.247 57.0962 252.065 57.9939C252.883 58.8916 253.98 59.3405 255.355 59.3405C256.23 59.3405 257.048 59.1416 257.809 58.7439C258.571 58.3348 259.184 57.7325 259.65 56.9371C260.127 56.1416 260.36 55.1587 260.349 53.9882ZM269.579 74.9541V38.9541H276.738V43.3518H277.062C277.38 42.6473 277.84 41.9314 278.442 41.2041C279.056 40.4655 279.851 39.8518 280.829 39.3632C281.817 38.8632 283.045 38.6132 284.51 38.6132C286.42 38.6132 288.181 39.1132 289.795 40.1132C291.408 41.1018 292.698 42.5962 293.664 44.5962C294.63 46.5848 295.113 49.0791 295.113 52.0791C295.113 54.9996 294.641 57.4655 293.698 59.4768C292.766 61.4768 291.493 62.9939 289.88 64.028C288.278 65.0507 286.482 65.5621 284.493 65.5621C283.084 65.5621 281.885 65.3291 280.897 64.8632C279.92 64.3973 279.118 63.8121 278.493 63.1075C277.868 62.3916 277.391 61.67 277.062 60.9427H276.84V74.9541H269.579ZM276.687 52.045C276.687 53.6018 276.903 54.9598 277.334 56.1189C277.766 57.278 278.391 58.1814 279.209 58.8291C280.028 59.4655 281.022 59.7837 282.192 59.7837C283.374 59.7837 284.374 59.4598 285.192 58.8121C286.01 58.153 286.63 57.2439 287.05 56.0848C287.482 54.9143 287.698 53.5677 287.698 52.045C287.698 50.5337 287.488 49.2041 287.067 48.0564C286.647 46.9087 286.028 46.0109 285.209 45.3632C284.391 44.7155 283.385 44.3916 282.192 44.3916C281.01 44.3916 280.01 44.7041 279.192 45.3291C278.385 45.9541 277.766 46.8405 277.334 47.9882C276.903 49.1359 276.687 50.4882 276.687 52.045ZM303.213 32.2041V30.2268H327.673V32.2041H316.508V65.1359H314.377V32.2041H303.213ZM337.277 65.6814C334.914 65.6814 332.857 65.0962 331.107 63.9257C329.357 62.7552 328.005 61.153 327.05 59.1189C326.096 57.0848 325.618 54.7666 325.618 52.1643C325.618 49.5507 326.096 47.2212 327.05 45.1757C328.016 43.1302 329.34 41.5166 331.022 40.3348C332.704 39.153 334.624 38.5621 336.783 38.5621C338.249 38.5621 339.635 38.8575 340.942 39.4484C342.26 40.028 343.419 40.8689 344.419 41.9712C345.431 43.0734 346.221 44.403 346.789 45.9598C347.368 47.5166 347.658 49.2666 347.658 51.2098V52.5052H326.931V50.6132H345.579C345.579 48.7155 345.192 47.0052 344.419 45.4825C343.647 43.9598 342.596 42.7496 341.266 41.8518C339.937 40.9541 338.442 40.5052 336.783 40.5052C335.044 40.5052 333.493 40.9939 332.13 41.9712C330.777 42.9371 329.704 44.2439 328.908 45.8916C328.124 47.5393 327.715 49.3802 327.681 51.4143V52.2666C327.681 54.4484 328.062 56.4087 328.823 58.1473C329.596 59.8746 330.698 61.2439 332.13 62.2552C333.562 63.2552 335.277 63.7552 337.277 63.7552C338.709 63.7552 339.931 63.5166 340.942 63.0393C341.965 62.5507 342.8 61.9598 343.448 61.2666C344.096 60.5734 344.584 59.903 344.914 59.2552L346.806 60.0223C346.408 60.8973 345.789 61.7723 344.948 62.6473C344.118 63.5109 343.062 64.2325 341.777 64.8121C340.505 65.3916 339.005 65.6814 337.277 65.6814ZM360.795 65.6814C358.568 65.6814 356.608 65.0962 354.915 63.9257C353.222 62.7439 351.898 61.1302 350.943 59.0848C350 57.0393 349.528 54.7212 349.528 52.1302C349.528 49.5393 350.006 47.2212 350.96 45.1757C351.915 43.1302 353.239 41.5166 354.932 40.3348C356.625 39.153 358.574 38.5621 360.778 38.5621C362.437 38.5621 363.949 38.903 365.312 39.5848C366.687 40.2666 367.824 41.2155 368.722 42.4314C369.631 43.6473 370.21 45.0564 370.46 46.6587H368.347C368.006 44.8859 367.153 43.42 365.79 42.2609C364.437 41.0905 362.773 40.5052 360.795 40.5052C359.023 40.5052 357.443 41.0052 356.057 42.0052C354.67 42.9939 353.579 44.3632 352.784 46.1132C351.989 47.8518 351.591 49.8462 351.591 52.0962C351.591 54.3121 351.977 56.3007 352.75 58.0621C353.523 59.8121 354.602 61.1984 355.989 62.2212C357.375 63.2439 358.977 63.7552 360.795 63.7552C362.079 63.7552 363.25 63.4996 364.307 62.9882C365.375 62.4768 366.267 61.7496 366.983 60.8064C367.699 59.8632 368.17 58.7609 368.398 57.4996H370.511C370.261 59.1132 369.693 60.5337 368.807 61.7609C367.92 62.9882 366.79 63.9484 365.415 64.6416C364.04 65.3348 362.5 65.6814 360.795 65.6814ZM375.842 48.1587V65.1359H373.762V38.9541H375.791V43.0962H375.995C376.609 41.7439 377.592 40.6587 378.944 39.8405C380.296 39.0223 381.904 38.6132 383.768 38.6132C385.529 38.6132 387.075 38.9882 388.404 39.7382C389.745 40.4882 390.791 41.5564 391.541 42.9427C392.302 44.3177 392.683 45.9598 392.683 47.8689V65.1359H390.603V47.9541C390.603 45.7268 389.938 43.9371 388.609 42.5848C387.291 41.2212 385.546 40.5393 383.376 40.5393C381.921 40.5393 380.626 40.8575 379.489 41.4939C378.353 42.1302 377.461 43.0223 376.813 44.17C376.166 45.3064 375.842 46.6359 375.842 48.1587ZM407.218 65.6814C405.059 65.6814 403.138 65.1018 401.456 63.9427C399.774 62.7723 398.451 61.1643 397.485 59.1189C396.519 57.0734 396.036 54.7439 396.036 52.1302C396.036 49.5052 396.519 47.1757 397.485 45.1416C398.451 43.0962 399.774 41.4882 401.456 40.3177C403.138 39.1473 405.059 38.5621 407.218 38.5621C409.377 38.5621 411.297 39.1473 412.979 40.3177C414.661 41.4882 415.985 43.0962 416.951 45.1416C417.917 47.1871 418.399 49.5166 418.399 52.1302C418.399 54.7439 417.917 57.0734 416.951 59.1189C415.985 61.1643 414.661 62.7723 412.979 63.9427C411.297 65.1018 409.377 65.6814 407.218 65.6814ZM407.218 63.7552C409.047 63.7552 410.644 63.2382 412.007 62.2041C413.382 61.17 414.445 59.7723 415.195 58.0109C415.956 56.2496 416.337 54.2893 416.337 52.1302C416.337 49.9712 415.956 48.0166 415.195 46.2666C414.434 44.5052 413.371 43.1075 412.007 42.0734C410.644 41.028 409.047 40.5052 407.218 40.5052C405.388 40.5052 403.792 41.028 402.428 42.0734C401.064 43.1075 400.002 44.5052 399.24 46.2666C398.479 48.0166 398.098 49.9712 398.098 52.1302C398.098 54.2893 398.473 56.2496 399.223 58.0109C399.985 59.7723 401.047 61.17 402.411 62.2041C403.786 63.2382 405.388 63.7552 407.218 63.7552ZM423.802 30.2268V65.1359H421.723V30.2268H423.802ZM438.303 65.6814C436.144 65.6814 434.224 65.1018 432.542 63.9427C430.86 62.7723 429.536 61.1643 428.57 59.1189C427.604 57.0734 427.121 54.7439 427.121 52.1302C427.121 49.5052 427.604 47.1757 428.57 45.1416C429.536 43.0962 430.86 41.4882 432.542 40.3177C434.224 39.1473 436.144 38.5621 438.303 38.5621C440.462 38.5621 442.383 39.1473 444.065 40.3177C445.746 41.4882 447.07 43.0962 448.036 45.1416C449.002 47.1871 449.485 49.5166 449.485 52.1302C449.485 54.7439 449.002 57.0734 448.036 59.1189C447.07 61.1643 445.746 62.7723 444.065 63.9427C442.383 65.1018 440.462 65.6814 438.303 65.6814ZM438.303 63.7552C440.133 63.7552 441.729 63.2382 443.093 62.2041C444.468 61.17 445.531 59.7723 446.281 58.0109C447.042 56.2496 447.423 54.2893 447.423 52.1302C447.423 49.9712 447.042 48.0166 446.281 46.2666C445.519 44.5052 444.457 43.1075 443.093 42.0734C441.729 41.028 440.133 40.5052 438.303 40.5052C436.474 40.5052 434.877 41.028 433.513 42.0734C432.15 43.1075 431.087 44.5052 430.326 46.2666C429.565 48.0166 429.184 49.9712 429.184 52.1302C429.184 54.2893 429.559 56.2496 430.309 58.0109C431.07 59.7723 432.133 61.17 433.496 62.2041C434.871 63.2382 436.474 63.7552 438.303 63.7552ZM462.252 75.4996C460.627 75.4996 459.166 75.2837 457.871 74.8518C456.575 74.4314 455.473 73.8291 454.564 73.045C453.666 72.2609 452.979 71.3291 452.502 70.2496L454.24 69.2268C454.627 70.0677 455.178 70.8177 455.894 71.4768C456.61 72.1359 457.496 72.653 458.553 73.028C459.621 73.403 460.854 73.5905 462.252 73.5905C464.774 73.5905 466.769 72.9371 468.235 71.6302C469.712 70.3348 470.45 68.3462 470.45 65.6643V59.153H470.246C469.848 60.2893 469.257 61.3007 468.473 62.1871C467.7 63.0621 466.752 63.7496 465.627 64.2496C464.502 64.7496 463.223 64.9996 461.791 64.9996C459.723 64.9996 457.905 64.4655 456.337 63.3973C454.769 62.3291 453.547 60.8291 452.672 58.8973C451.797 56.9541 451.36 54.67 451.36 52.045C451.36 49.42 451.786 47.0962 452.638 45.0734C453.502 43.0393 454.718 41.4484 456.286 40.3007C457.854 39.1416 459.695 38.5621 461.808 38.5621C463.32 38.5621 464.627 38.8518 465.729 39.4314C466.843 39.9996 467.774 40.7552 468.524 41.6984C469.274 42.6416 469.854 43.6757 470.263 44.8007H470.502V38.9541H472.513V65.7496C472.513 67.9314 472.081 69.7439 471.218 71.1871C470.365 72.6302 469.166 73.7098 467.621 74.4257C466.087 75.1416 464.297 75.4996 462.252 75.4996ZM461.979 63.0734C463.729 63.0734 465.235 62.6302 466.496 61.7439C467.769 60.8462 468.746 59.5734 469.428 57.9257C470.121 56.2666 470.468 54.3007 470.468 52.028C470.468 49.8234 470.132 47.8518 469.462 46.1132C468.791 44.3746 467.82 43.0052 466.547 42.0052C465.274 41.0052 463.752 40.5052 461.979 40.5052C460.172 40.5052 458.632 41.0166 457.36 42.0393C456.087 43.0507 455.11 44.4257 454.428 46.1643C453.757 47.903 453.422 49.8575 453.422 52.028C453.422 54.2098 453.763 56.1302 454.445 57.7893C455.127 59.4371 456.104 60.7325 457.377 61.6757C458.649 62.6075 460.183 63.0734 461.979 63.0734ZM477.524 65.1359V38.9541H479.586V65.1359H477.524ZM478.564 34.3177C478.109 34.3177 477.711 34.1587 477.37 33.8405C477.041 33.5223 476.876 33.1359 476.876 32.6814C476.876 32.2268 477.041 31.8405 477.37 31.5223C477.7 31.2041 478.098 31.045 478.564 31.045C479.018 31.045 479.41 31.2041 479.74 31.5223C480.081 31.8405 480.251 32.2268 480.251 32.6814C480.251 33.1359 480.086 33.5223 479.757 33.8405C479.427 34.1587 479.03 34.3177 478.564 34.3177ZM491.394 65.6984C489.883 65.6984 488.496 65.3973 487.235 64.795C485.985 64.1927 484.979 63.3121 484.218 62.153C483.468 60.9939 483.093 59.5848 483.093 57.9257C483.093 56.8348 483.286 55.8746 483.672 55.045C484.059 54.2155 484.655 53.4996 485.462 52.8973C486.269 52.295 487.303 51.8007 488.565 51.4143C489.826 51.0166 491.332 50.7098 493.082 50.4939C494.411 50.3348 495.599 50.1814 496.644 50.0337C497.69 49.8746 498.508 49.6302 499.099 49.3007C499.701 48.9712 500.002 48.4712 500.002 47.8007V46.7098C500.002 44.8007 499.4 43.2837 498.195 42.1587C496.991 41.0337 495.332 40.4712 493.218 40.4712C491.343 40.4712 489.763 40.8859 488.479 41.7155C487.207 42.5337 486.315 43.5905 485.803 44.8859L483.843 44.153C484.343 42.903 485.065 41.8632 486.008 41.0337C486.962 40.2041 488.053 39.5848 489.28 39.1757C490.519 38.7666 491.815 38.5621 493.167 38.5621C494.337 38.5621 495.451 38.7268 496.508 39.0564C497.576 39.3859 498.525 39.8859 499.354 40.5564C500.195 41.2268 500.86 42.0848 501.349 43.1302C501.837 44.1643 502.082 45.403 502.082 46.8462V65.1359H500.002V60.4143H499.849C499.394 61.3916 498.769 62.2837 497.974 63.0905C497.19 63.8859 496.241 64.5223 495.127 64.9996C494.025 65.4655 492.78 65.6984 491.394 65.6984ZM491.599 63.7723C493.235 63.7723 494.684 63.3746 495.945 62.5791C497.218 61.7723 498.212 60.67 498.928 59.2723C499.644 57.8746 500.002 56.2893 500.002 54.5166V50.6643C499.741 50.8916 499.36 51.0962 498.86 51.278C498.371 51.4484 497.815 51.6018 497.19 51.7382C496.576 51.8632 495.928 51.9768 495.246 52.0791C494.576 52.17 493.922 52.2552 493.286 52.3348C491.377 52.5621 489.82 52.9143 488.616 53.3916C487.422 53.8575 486.547 54.4712 485.991 55.2325C485.445 55.9939 485.172 56.9143 485.172 57.9939C485.172 59.778 485.786 61.1871 487.013 62.2212C488.241 63.2552 489.769 63.7723 491.599 63.7723Z" fill="white"/>
<g filter="url(#filter0_d_20_13)">
<path d="M90.441 19.7928C90.9705 19.2852 91.6887 19 92.4375 19H111.22C113.73 19 114.992 21.9046 113.223 23.6121L71.3633 64.0312C70.8332 64.543 70.112 64.8309 69.3596 64.8309H50.2766C47.7616 64.8309 46.5019 61.9166 48.28 60.2119L90.441 19.7928Z" fill="#00BC7D"/>
<path d="M92.4374 65C89.9222 65 88.6626 62.0854 90.4411 60.3808L113.181 38.5861C114.959 36.8815 118 38.0888 118 40.4995V62.2941C118 63.7885 116.736 65 115.177 65H92.4374Z" fill="#00BC7D"/>
<path d="M47.9933 19.7928C48.5227 19.2852 49.2409 19 49.9898 19H68.772C71.2822 19 72.544 21.9046 70.7757 23.6121L28.9156 64.0312C28.3855 64.543 27.6643 64.8309 26.9119 64.8309H7.82885C5.31383 64.8309 4.05413 61.9166 5.8323 60.2119L47.9933 19.7928Z" fill="#00BC7D"/>
</g>
<path d="M5.84091 88.3182V87.3636H14.2784V88.3182H10.5909V99H9.52841V88.3182H5.84091ZM22.083 99.1818C21.2686 99.1818 20.5641 98.9924 19.9694 98.6136C19.3747 98.2311 18.9145 97.7027 18.5887 97.0284C18.2667 96.3504 18.1057 95.5701 18.1057 94.6875C18.1057 93.8087 18.2667 93.0284 18.5887 92.3466C18.9145 91.661 19.3633 91.125 19.9353 90.7386C20.511 90.3485 21.1758 90.1534 21.9296 90.1534C22.4031 90.1534 22.8595 90.2405 23.2989 90.4148C23.7383 90.5852 24.1323 90.8485 24.4807 91.2045C24.833 91.5568 25.1114 92.0019 25.316 92.5398C25.5205 93.0739 25.6228 93.7064 25.6228 94.4375V94.9375H18.8046V94.0455H24.5887C24.5887 93.4848 24.4751 92.9811 24.2478 92.5341C24.0243 92.0833 23.7118 91.7273 23.3103 91.4659C22.9126 91.2045 22.4523 91.0739 21.9296 91.0739C21.3766 91.0739 20.8898 91.2216 20.4694 91.517C20.0489 91.8125 19.7194 92.2027 19.4807 92.6875C19.2459 93.1723 19.1266 93.7027 19.1228 94.2784V94.8125C19.1228 95.5057 19.2421 96.1117 19.4807 96.6307C19.7232 97.1458 20.066 97.5455 20.5091 97.8295C20.9523 98.1136 21.477 98.2557 22.083 98.2557C22.4959 98.2557 22.8576 98.1913 23.1682 98.0625C23.4826 97.9337 23.7459 97.7614 23.958 97.5455C24.1739 97.3258 24.3368 97.0852 24.4466 96.8239L25.4069 97.1364C25.2743 97.5038 25.0565 97.8428 24.7535 98.1534C24.4542 98.464 24.0792 98.714 23.6285 98.9034C23.1815 99.089 22.6663 99.1818 22.083 99.1818ZM34.6206 99.1818C33.8403 99.1818 33.1603 98.9867 32.5808 98.5966C32.005 98.2064 31.5581 97.6723 31.2399 96.9943C30.9217 96.3163 30.7626 95.5436 30.7626 94.6761C30.7626 93.8011 30.9236 93.0227 31.2456 92.3409C31.5713 91.6591 32.0221 91.125 32.5978 90.7386C33.1736 90.3485 33.8422 90.1534 34.6035 90.1534C35.1869 90.1534 35.7153 90.267 36.1887 90.4943C36.6622 90.7178 37.0524 91.0341 37.3592 91.4432C37.6698 91.8485 37.8649 92.322 37.9444 92.8636H36.9217C36.8156 92.3712 36.56 91.9508 36.1547 91.6023C35.7531 91.25 35.2418 91.0739 34.6206 91.0739C34.0637 91.0739 33.5713 91.2254 33.1433 91.5284C32.7153 91.8277 32.38 92.2462 32.1376 92.7841C31.899 93.3182 31.7797 93.9375 31.7797 94.642C31.7797 95.3504 31.8971 95.9773 32.1319 96.5227C32.3668 97.0644 32.6963 97.4886 33.1206 97.7955C33.5486 98.1023 34.0486 98.2557 34.6206 98.2557C35.0069 98.2557 35.3592 98.1837 35.6774 98.0398C35.9994 97.892 36.2683 97.6837 36.4842 97.4148C36.7039 97.1458 36.8516 96.8258 36.9274 96.4545H37.9501C37.8744 96.9811 37.6869 97.4508 37.3876 97.8636C37.0922 98.2727 36.7077 98.5947 36.2342 98.8295C35.7645 99.0644 35.2266 99.1818 34.6206 99.1818ZM44.4891 93.5455V99H43.4777V90.2727H44.4607V91.642H44.5516C44.7561 91.1951 45.0743 90.8371 45.5061 90.5682C45.9417 90.2955 46.4796 90.1591 47.1198 90.1591C47.7069 90.1591 48.222 90.2822 48.6652 90.5284C49.1122 90.7708 49.4588 91.1288 49.705 91.6023C49.955 92.0758 50.08 92.6572 50.08 93.3466V99H49.0686V93.4091C49.0686 92.6932 48.8679 92.1269 48.4664 91.7102C48.0686 91.2936 47.5345 91.0852 46.8641 91.0852C46.4058 91.0852 45.9986 91.1837 45.6425 91.3807C45.2864 91.5777 45.0042 91.8617 44.7959 92.233C44.5914 92.6004 44.4891 93.0379 44.4891 93.5455ZM59.4954 99.1818C58.7416 99.1818 58.0749 98.9905 57.4954 98.608C56.9196 98.2254 56.4689 97.697 56.1431 97.0227C55.8174 96.3447 55.6545 95.5625 55.6545 94.6761C55.6545 93.7822 55.8174 92.9962 56.1431 92.3182C56.4689 91.6364 56.9196 91.1061 57.4954 90.7273C58.0749 90.3447 58.7416 90.1534 59.4954 90.1534C60.2492 90.1534 60.914 90.3447 61.4897 90.7273C62.0655 91.1098 62.5162 91.6402 62.842 92.3182C63.1715 92.9962 63.3363 93.7822 63.3363 94.6761C63.3363 95.5625 63.1734 96.3447 62.8477 97.0227C62.5219 97.697 62.0693 98.2254 61.4897 98.608C60.914 98.9905 60.2492 99.1818 59.4954 99.1818ZM59.4954 98.2557C60.1015 98.2557 60.6147 98.0928 61.0352 97.767C61.4556 97.4413 61.7738 97.0076 61.9897 96.4659C62.2094 95.9242 62.3193 95.3277 62.3193 94.6761C62.3193 94.0246 62.2094 93.4261 61.9897 92.8807C61.7738 92.3352 61.4556 91.8977 61.0352 91.5682C60.6147 91.2386 60.1015 91.0739 59.4954 91.0739C58.8931 91.0739 58.3799 91.2386 57.9556 91.5682C57.5352 91.8977 57.2151 92.3352 56.9954 92.8807C56.7795 93.4261 56.6715 94.0246 56.6715 94.6761C56.6715 95.3277 56.7795 95.9242 56.9954 96.4659C57.2151 97.0076 57.5352 97.4413 57.9556 97.767C58.3761 98.0928 58.8893 98.2557 59.4954 98.2557ZM69.9278 87.3636V99H68.9165V87.3636H69.9278ZM79.356 99.1818C78.6022 99.1818 77.9356 98.9905 77.356 98.608C76.7803 98.2254 76.3295 97.697 76.0037 97.0227C75.678 96.3447 75.5151 95.5625 75.5151 94.6761C75.5151 93.7822 75.678 92.9962 76.0037 92.3182C76.3295 91.6364 76.7803 91.1061 77.356 90.7273C77.9356 90.3447 78.6022 90.1534 79.356 90.1534C80.1098 90.1534 80.7746 90.3447 81.3503 90.7273C81.9261 91.1098 82.3769 91.6402 82.7026 92.3182C83.0322 92.9962 83.1969 93.7822 83.1969 94.6761C83.1969 95.5625 83.034 96.3447 82.7083 97.0227C82.3825 97.697 81.9299 98.2254 81.3503 98.608C80.7746 98.9905 80.1098 99.1818 79.356 99.1818ZM79.356 98.2557C79.9621 98.2557 80.4753 98.0928 80.8958 97.767C81.3162 97.4413 81.6344 97.0076 81.8503 96.4659C82.07 95.9242 82.1799 95.3277 82.1799 94.6761C82.1799 94.0246 82.07 93.4261 81.8503 92.8807C81.6344 92.3352 81.3162 91.8977 80.8958 91.5682C80.4753 91.2386 79.9621 91.0739 79.356 91.0739C78.7537 91.0739 78.2405 91.2386 77.8162 91.5682C77.3958 91.8977 77.0757 92.3352 76.856 92.8807C76.6401 93.4261 76.5322 94.0246 76.5322 94.6761C76.5322 95.3277 76.6401 95.9242 76.856 96.4659C77.0757 97.0076 77.3958 97.4413 77.8162 97.767C78.2367 98.0928 78.75 98.2557 79.356 98.2557ZM92.1066 102.455C91.5119 102.455 90.9911 102.377 90.5441 102.222C90.0972 102.07 89.7203 101.862 89.4135 101.597C89.1066 101.331 88.868 101.034 88.6976 100.705L89.5271 100.159C89.6521 100.379 89.8188 100.595 90.0271 100.807C90.2392 101.019 90.5138 101.195 90.851 101.335C91.1919 101.475 91.6104 101.545 92.1066 101.545C92.8794 101.545 93.5025 101.352 93.976 100.966C94.4532 100.58 94.6919 99.9792 94.6919 99.1648V97.1989H94.601C94.4835 97.464 94.315 97.7292 94.0953 97.9943C93.8756 98.2557 93.5877 98.4735 93.2316 98.6477C92.8794 98.822 92.4419 98.9091 91.9191 98.9091C91.2222 98.9091 90.6029 98.7367 90.0612 98.392C89.5233 98.0473 89.0991 97.5549 88.7885 96.9148C88.4816 96.2708 88.3282 95.5038 88.3282 94.6136C88.3282 93.7311 88.4779 92.9545 88.7771 92.2841C89.0801 91.6136 89.5025 91.0909 90.0441 90.7159C90.5858 90.3409 91.2165 90.1534 91.9362 90.1534C92.4703 90.1534 92.9135 90.2481 93.2657 90.4375C93.618 90.6231 93.9002 90.8542 94.1123 91.1307C94.3282 91.4072 94.4968 91.6761 94.618 91.9375H94.7203V90.2727H95.7089V99.2273C95.7089 99.9659 95.5517 100.574 95.2373 101.051C94.9229 101.528 94.4949 101.881 93.9532 102.108C93.4116 102.339 92.796 102.455 92.1066 102.455ZM92.0385 97.983C92.5991 97.983 93.0782 97.8485 93.476 97.5795C93.8737 97.3068 94.1786 96.9167 94.3907 96.4091C94.6029 95.9015 94.7089 95.2973 94.7089 94.5966C94.7089 93.9148 94.6048 93.3106 94.3964 92.7841C94.1881 92.2538 93.8851 91.8371 93.4873 91.5341C93.0934 91.2273 92.6104 91.0739 92.0385 91.0739C91.4551 91.0739 90.9627 91.2311 90.5612 91.5455C90.1597 91.8598 89.8566 92.2841 89.6521 92.8182C89.4476 93.3485 89.3453 93.9413 89.3453 94.5966C89.3453 95.2633 89.4494 95.8523 89.6578 96.3636C89.8661 96.8712 90.171 97.2689 90.5726 97.5568C90.9741 97.8409 91.4627 97.983 92.0385 97.983ZM101.758 99V90.2727H102.775V99H101.758ZM102.275 88.7727C102.067 88.7727 101.889 88.7027 101.741 88.5625C101.593 88.4186 101.519 88.2462 101.519 88.0455C101.519 87.8447 101.593 87.6742 101.741 87.5341C101.889 87.3902 102.067 87.3182 102.275 87.3182C102.483 87.3182 102.661 87.3902 102.809 87.5341C102.957 87.6742 103.031 87.8447 103.031 88.0455C103.031 88.2462 102.957 88.4186 102.809 88.5625C102.661 88.7027 102.483 88.7727 102.275 88.7727ZM111.247 99.1989C110.721 99.1989 110.24 99.0966 109.804 98.892C109.368 98.6837 109.022 98.3845 108.764 97.9943C108.507 97.6004 108.378 97.1231 108.378 96.5625C108.378 96.1307 108.459 95.767 108.622 95.4716C108.785 95.1761 109.016 94.9337 109.315 94.7443C109.615 94.5549 109.969 94.4053 110.378 94.2955C110.787 94.1856 111.238 94.1004 111.73 94.0398C112.219 93.9792 112.632 93.9261 112.969 93.8807C113.31 93.8352 113.569 93.7633 113.747 93.6648C113.925 93.5663 114.014 93.4072 114.014 93.1875V92.983C114.014 92.3883 113.836 91.9205 113.48 91.5795C113.128 91.2348 112.62 91.0625 111.957 91.0625C111.329 91.0625 110.815 91.2008 110.418 91.4773C110.024 91.7538 109.747 92.0795 109.588 92.4545L108.628 92.108C108.825 91.6307 109.097 91.25 109.446 90.9659C109.794 90.678 110.185 90.4716 110.616 90.3466C111.048 90.2178 111.486 90.1534 111.929 90.1534C112.262 90.1534 112.609 90.197 112.969 90.2841C113.332 90.3712 113.669 90.5227 113.98 90.7386C114.291 90.9508 114.543 91.2481 114.736 91.6307C114.929 92.0095 115.026 92.4905 115.026 93.0739V99H114.014V97.6193H113.952C113.83 97.8769 113.651 98.1269 113.412 98.3693C113.173 98.6117 112.874 98.8106 112.514 98.9659C112.154 99.1212 111.732 99.1989 111.247 99.1989ZM111.383 98.2727C111.921 98.2727 112.387 98.1534 112.781 97.9148C113.175 97.6761 113.478 97.3598 113.69 96.9659C113.906 96.5682 114.014 96.1307 114.014 95.6534V94.392C113.938 94.464 113.811 94.5284 113.633 94.5852C113.459 94.642 113.257 94.6932 113.026 94.7386C112.798 94.7803 112.571 94.8163 112.344 94.8466C112.116 94.8769 111.912 94.9034 111.73 94.9261C111.238 94.9867 110.817 95.0814 110.469 95.2102C110.12 95.339 109.853 95.517 109.668 95.7443C109.482 95.9678 109.389 96.2557 109.389 96.608C109.389 97.1383 109.579 97.5492 109.957 97.8409C110.336 98.1288 110.811 98.2727 111.383 98.2727ZM128.936 102.273V90.2727H129.919V91.9375H130.038C130.159 91.6761 130.326 91.4091 130.538 91.1364C130.75 90.8598 131.031 90.6269 131.379 90.4375C131.731 90.2481 132.174 90.1534 132.709 90.1534C133.428 90.1534 134.057 90.3428 134.595 90.7216C135.137 91.0966 135.557 91.6231 135.856 92.3011C136.159 92.9754 136.311 93.7614 136.311 94.6591C136.311 95.5606 136.159 96.3504 135.856 97.0284C135.557 97.7064 135.137 98.2348 134.595 98.6136C134.057 98.9924 133.432 99.1818 132.72 99.1818C132.193 99.1818 131.752 99.0871 131.396 98.8977C131.044 98.7083 130.758 98.4754 130.538 98.1989C130.322 97.9186 130.156 97.6458 130.038 97.3807H129.947V102.273H128.936ZM129.936 94.642C129.936 95.3466 130.04 95.9716 130.248 96.517C130.46 97.0587 130.764 97.4848 131.157 97.7955C131.555 98.1023 132.036 98.2557 132.601 98.2557C133.18 98.2557 133.669 98.0966 134.067 97.7784C134.468 97.4564 134.773 97.0227 134.981 96.4773C135.193 95.9318 135.299 95.3201 135.299 94.642C135.299 93.9716 135.195 93.3674 134.987 92.8295C134.782 92.2917 134.479 91.8655 134.078 91.5511C133.676 91.233 133.184 91.0739 132.601 91.0739C132.032 91.0739 131.549 91.2273 131.152 91.5341C130.754 91.8371 130.451 92.2576 130.243 92.7955C130.038 93.3295 129.936 93.9451 129.936 94.642ZM144.327 99.1989C143.801 99.1989 143.32 99.0966 142.884 98.892C142.448 98.6837 142.102 98.3845 141.844 97.9943C141.587 97.6004 141.458 97.1231 141.458 96.5625C141.458 96.1307 141.539 95.767 141.702 95.4716C141.865 95.1761 142.096 94.9337 142.395 94.7443C142.695 94.5549 143.049 94.4053 143.458 94.2955C143.867 94.1856 144.318 94.1004 144.81 94.0398C145.299 93.9792 145.712 93.9261 146.049 93.8807C146.39 93.8352 146.649 93.7633 146.827 93.6648C147.005 93.5663 147.094 93.4072 147.094 93.1875V92.983C147.094 92.3883 146.916 91.9205 146.56 91.5795C146.208 91.2348 145.7 91.0625 145.037 91.0625C144.409 91.0625 143.895 91.2008 143.498 91.4773C143.104 91.7538 142.827 92.0795 142.668 92.4545L141.708 92.108C141.905 91.6307 142.177 91.25 142.526 90.9659C142.874 90.678 143.265 90.4716 143.696 90.3466C144.128 90.2178 144.566 90.1534 145.009 90.1534C145.342 90.1534 145.689 90.197 146.049 90.2841C146.412 90.3712 146.749 90.5227 147.06 90.7386C147.371 90.9508 147.623 91.2481 147.816 91.6307C148.009 92.0095 148.106 92.4905 148.106 93.0739V99H147.094V97.6193H147.032C146.91 97.8769 146.731 98.1269 146.492 98.3693C146.253 98.6117 145.954 98.8106 145.594 98.9659C145.234 99.1212 144.812 99.1989 144.327 99.1989ZM144.463 98.2727C145.001 98.2727 145.467 98.1534 145.861 97.9148C146.255 97.6761 146.558 97.3598 146.77 96.9659C146.986 96.5682 147.094 96.1307 147.094 95.6534V94.392C147.018 94.464 146.891 94.5284 146.713 94.5852C146.539 94.642 146.337 94.6932 146.106 94.7386C145.878 94.7803 145.651 94.8163 145.424 94.8466C145.196 94.8769 144.992 94.9034 144.81 94.9261C144.318 94.9867 143.897 95.0814 143.549 95.2102C143.2 95.339 142.933 95.517 142.748 95.7443C142.562 95.9678 142.469 96.2557 142.469 96.608C142.469 97.1383 142.659 97.5492 143.037 97.8409C143.416 98.1288 143.891 98.2727 144.463 98.2727ZM154.156 99V90.2727H155.139V91.6136H155.213C155.387 91.1742 155.69 90.8201 156.122 90.5511C156.557 90.2784 157.05 90.142 157.599 90.142C157.682 90.142 157.775 90.1439 157.877 90.1477C157.98 90.1515 158.065 90.1553 158.133 90.1591V91.1875C158.088 91.1799 158.008 91.1686 157.894 91.1534C157.781 91.1383 157.658 91.1307 157.525 91.1307C157.071 91.1307 156.665 91.2273 156.309 91.4205C155.957 91.6098 155.679 91.8731 155.474 92.2102C155.269 92.5473 155.167 92.9318 155.167 93.3636V99H154.156ZM165.656 99.1989C165.13 99.1989 164.649 99.0966 164.213 98.892C163.778 98.6837 163.431 98.3845 163.174 97.9943C162.916 97.6004 162.787 97.1231 162.787 96.5625C162.787 96.1307 162.869 95.767 163.031 95.4716C163.194 95.1761 163.425 94.9337 163.725 94.7443C164.024 94.5549 164.378 94.4053 164.787 94.2955C165.196 94.1856 165.647 94.1004 166.139 94.0398C166.628 93.9792 167.041 93.9261 167.378 93.8807C167.719 93.8352 167.978 93.7633 168.156 93.6648C168.335 93.5663 168.424 93.4072 168.424 93.1875V92.983C168.424 92.3883 168.245 91.9205 167.889 91.5795C167.537 91.2348 167.03 91.0625 166.367 91.0625C165.738 91.0625 165.225 91.2008 164.827 91.4773C164.433 91.7538 164.156 92.0795 163.997 92.4545L163.037 92.108C163.234 91.6307 163.507 91.25 163.855 90.9659C164.204 90.678 164.594 90.4716 165.026 90.3466C165.458 90.2178 165.895 90.1534 166.338 90.1534C166.672 90.1534 167.018 90.197 167.378 90.2841C167.742 90.3712 168.079 90.5227 168.389 90.7386C168.7 90.9508 168.952 91.2481 169.145 91.6307C169.338 92.0095 169.435 92.4905 169.435 93.0739V99H168.424V97.6193H168.361C168.24 97.8769 168.06 98.1269 167.821 98.3693C167.583 98.6117 167.283 98.8106 166.924 98.9659C166.564 99.1212 166.141 99.1989 165.656 99.1989ZM165.793 98.2727C166.331 98.2727 166.797 98.1534 167.191 97.9148C167.585 97.6761 167.888 97.3598 168.1 96.9659C168.316 96.5682 168.424 96.1307 168.424 95.6534V94.392C168.348 94.464 168.221 94.5284 168.043 94.5852C167.869 94.642 167.666 94.6932 167.435 94.7386C167.208 94.7803 166.98 94.8163 166.753 94.8466C166.526 94.8769 166.321 94.9034 166.139 94.9261C165.647 94.9867 165.227 95.0814 164.878 95.2102C164.53 95.339 164.263 95.517 164.077 95.7443C163.891 95.9678 163.799 96.2557 163.799 96.608C163.799 97.1383 163.988 97.5492 164.367 97.8409C164.745 98.1288 165.221 98.2727 165.793 98.2727ZM183.357 99V90.2727H184.374V99H183.357ZM183.874 88.7727C183.665 88.7727 183.487 88.7027 183.34 88.5625C183.192 88.4186 183.118 88.2462 183.118 88.0455C183.118 87.8447 183.192 87.6742 183.34 87.5341C183.487 87.3902 183.665 87.3182 183.874 87.3182C184.082 87.3182 184.26 87.3902 184.408 87.5341C184.555 87.6742 184.629 87.8447 184.629 88.0455C184.629 88.2462 184.555 88.4186 184.408 88.5625C184.26 88.7027 184.082 88.7727 183.874 88.7727ZM190.408 99V90.2727H191.391V91.6136H191.482C191.656 91.1629 191.946 90.8087 192.352 90.5511C192.761 90.2898 193.251 90.1591 193.823 90.1591C194.425 90.1591 194.92 90.3011 195.306 90.5852C195.696 90.8655 195.988 91.2519 196.181 91.7443H196.255C196.452 91.2595 196.772 90.875 197.215 90.5909C197.662 90.303 198.204 90.1591 198.84 90.1591C199.651 90.1591 200.291 90.4148 200.761 90.9261C201.23 91.4337 201.465 92.1761 201.465 93.1534V99H200.454V93.1534C200.454 92.464 200.278 91.947 199.925 91.6023C199.573 91.2576 199.109 91.0852 198.533 91.0852C197.867 91.0852 197.353 91.2898 196.994 91.6989C196.634 92.108 196.454 92.6269 196.454 93.2557V99H195.42V93.0625C195.42 92.4716 195.255 91.9943 194.925 91.6307C194.596 91.267 194.132 91.0852 193.533 91.0852C193.132 91.0852 192.77 91.1837 192.448 91.3807C192.13 91.5777 191.878 91.8523 191.692 92.2045C191.511 92.553 191.42 92.9545 191.42 93.4091V99H190.408ZM207.503 102.273V90.2727H208.486V91.9375H208.605C208.726 91.6761 208.893 91.4091 209.105 91.1364C209.317 90.8598 209.597 90.6269 209.946 90.4375C210.298 90.2481 210.741 90.1534 211.275 90.1534C211.995 90.1534 212.624 90.3428 213.162 90.7216C213.703 91.0966 214.124 91.6231 214.423 92.3011C214.726 92.9754 214.878 93.7614 214.878 94.6591C214.878 95.5606 214.726 96.3504 214.423 97.0284C214.124 97.7064 213.703 98.2348 213.162 98.6136C212.624 98.9924 211.999 99.1818 211.287 99.1818C210.76 99.1818 210.319 99.0871 209.963 98.8977C209.611 98.7083 209.325 98.4754 209.105 98.1989C208.889 97.9186 208.722 97.6458 208.605 97.3807H208.514V102.273H207.503ZM208.503 94.642C208.503 95.3466 208.607 95.9716 208.815 96.517C209.027 97.0587 209.33 97.4848 209.724 97.7955C210.122 98.1023 210.603 98.2557 211.167 98.2557C211.747 98.2557 212.236 98.0966 212.633 97.7784C213.035 97.4564 213.34 97.0227 213.548 96.4773C213.76 95.9318 213.866 95.3201 213.866 94.642C213.866 93.9716 213.762 93.3674 213.554 92.8295C213.349 92.2917 213.046 91.8655 212.645 91.5511C212.243 91.233 211.751 91.0739 211.167 91.0739C210.599 91.0739 210.116 91.2273 209.719 91.5341C209.321 91.8371 209.018 92.2576 208.81 92.7955C208.605 93.3295 208.503 93.9451 208.503 94.642ZM226.002 95.6648V90.2727H227.013V99H226.002V97.5511H225.922C225.718 97.9981 225.394 98.3712 224.951 98.6705C224.508 98.9659 223.966 99.1136 223.326 99.1136C222.769 99.1136 222.275 98.9924 221.843 98.75C221.411 98.5038 221.072 98.1439 220.826 97.6705C220.58 97.197 220.456 96.6155 220.456 95.9261V90.2727H221.468V95.8636C221.468 96.5455 221.669 97.0947 222.07 97.5114C222.472 97.9242 222.987 98.1307 223.616 98.1307C224.01 98.1307 224.388 98.036 224.752 97.8466C225.116 97.6572 225.415 97.3807 225.65 97.017C225.885 96.6496 226.002 96.1989 226.002 95.6648ZM234.062 87.3636V99H233.051V87.3636H234.062ZM245.962 92.1875L245.036 92.4489C244.945 92.1875 244.816 91.9508 244.649 91.7386C244.483 91.5265 244.265 91.358 243.996 91.233C243.731 91.108 243.401 91.0455 243.007 91.0455C242.417 91.0455 241.932 91.1856 241.553 91.4659C241.174 91.7462 240.985 92.108 240.985 92.5511C240.985 92.9261 241.114 93.2311 241.371 93.4659C241.632 93.697 242.034 93.8807 242.576 94.017L243.894 94.3409C244.625 94.5189 245.172 94.8011 245.536 95.1875C245.903 95.5739 246.087 96.0587 246.087 96.642C246.087 97.1345 245.951 97.572 245.678 97.9545C245.405 98.3371 245.024 98.6383 244.536 98.858C244.051 99.0739 243.489 99.1818 242.848 99.1818C241.996 99.1818 241.293 98.9905 240.74 98.608C240.187 98.2216 239.833 97.6648 239.678 96.9375L240.649 96.6989C240.774 97.2178 241.019 97.6098 241.382 97.875C241.75 98.1402 242.233 98.2727 242.831 98.2727C243.502 98.2727 244.038 98.1231 244.439 97.8239C244.841 97.5208 245.042 97.142 245.042 96.6875C245.042 96.3352 244.924 96.0398 244.689 95.8011C244.454 95.5587 244.098 95.3807 243.621 95.267L242.195 94.9261C241.437 94.7443 240.877 94.4564 240.513 94.0625C240.149 93.6686 239.968 93.1799 239.968 92.5966C239.968 92.1155 240.098 91.6932 240.36 91.3295C240.621 90.9621 240.981 90.6742 241.439 90.4659C241.898 90.2576 242.42 90.1534 243.007 90.1534C243.807 90.1534 244.445 90.3352 244.922 90.6989C245.403 91.0587 245.75 91.5549 245.962 92.1875ZM251.673 99V90.2727H252.69V99H251.673ZM252.19 88.7727C251.982 88.7727 251.804 88.7027 251.656 88.5625C251.508 88.4186 251.434 88.2462 251.434 88.0455C251.434 87.8447 251.508 87.6742 251.656 87.5341C251.804 87.3902 251.982 87.3182 252.19 87.3182C252.398 87.3182 252.576 87.3902 252.724 87.5341C252.872 87.6742 252.946 87.8447 252.946 88.0455C252.946 88.2462 252.872 88.4186 252.724 88.5625C252.576 88.7027 252.398 88.7727 252.19 88.7727ZM262.117 99.1818C261.363 99.1818 260.696 98.9905 260.117 98.608C259.541 98.2254 259.09 97.697 258.764 97.0227C258.439 96.3447 258.276 95.5625 258.276 94.6761C258.276 93.7822 258.439 92.9962 258.764 92.3182C259.09 91.6364 259.541 91.1061 260.117 90.7273C260.696 90.3447 261.363 90.1534 262.117 90.1534C262.87 90.1534 263.535 90.3447 264.111 90.7273C264.687 91.1098 265.137 91.6402 265.463 92.3182C265.793 92.9962 265.958 93.7822 265.958 94.6761C265.958 95.5625 265.795 96.3447 265.469 97.0227C265.143 97.697 264.691 98.2254 264.111 98.608C263.535 98.9905 262.87 99.1818 262.117 99.1818ZM262.117 98.2557C262.723 98.2557 263.236 98.0928 263.656 97.767C264.077 97.4413 264.395 97.0076 264.611 96.4659C264.831 95.9242 264.941 95.3277 264.941 94.6761C264.941 94.0246 264.831 93.4261 264.611 92.8807C264.395 92.3352 264.077 91.8977 263.656 91.5682C263.236 91.2386 262.723 91.0739 262.117 91.0739C261.514 91.0739 261.001 91.2386 260.577 91.5682C260.156 91.8977 259.836 92.3352 259.617 92.8807C259.401 93.4261 259.293 94.0246 259.293 94.6761C259.293 95.3277 259.401 95.9242 259.617 96.4659C259.836 97.0076 260.156 97.4413 260.577 97.767C260.997 98.0928 261.511 98.2557 262.117 98.2557ZM272.549 93.5455V99H271.538V90.2727H272.521V91.642H272.612C272.816 91.1951 273.134 90.8371 273.566 90.5682C274.002 90.2955 274.54 90.1591 275.18 90.1591C275.767 90.1591 276.282 90.2822 276.725 90.5284C277.172 90.7708 277.519 91.1288 277.765 91.6023C278.015 92.0758 278.14 92.6572 278.14 93.3466V99H277.129V93.4091C277.129 92.6932 276.928 92.1269 276.526 91.7102C276.129 91.2936 275.595 91.0852 274.924 91.0852C274.466 91.0852 274.059 91.1837 273.702 91.3807C273.346 91.5777 273.064 91.8617 272.856 92.233C272.651 92.6004 272.549 93.0379 272.549 93.5455ZM286.601 99.1989C286.074 99.1989 285.593 99.0966 285.158 98.892C284.722 98.6837 284.375 98.3845 284.118 97.9943C283.86 97.6004 283.732 97.1231 283.732 96.5625C283.732 96.1307 283.813 95.767 283.976 95.4716C284.139 95.1761 284.37 94.9337 284.669 94.7443C284.968 94.5549 285.322 94.4053 285.732 94.2955C286.141 94.1856 286.591 94.1004 287.084 94.0398C287.572 93.9792 287.985 93.9261 288.322 93.8807C288.663 93.8352 288.923 93.7633 289.101 93.6648C289.279 93.5663 289.368 93.4072 289.368 93.1875V92.983C289.368 92.3883 289.19 91.9205 288.834 91.5795C288.482 91.2348 287.974 91.0625 287.311 91.0625C286.682 91.0625 286.169 91.2008 285.771 91.4773C285.377 91.7538 285.101 92.0795 284.942 92.4545L283.982 92.108C284.179 91.6307 284.451 91.25 284.8 90.9659C285.148 90.678 285.538 90.4716 285.97 90.3466C286.402 90.2178 286.839 90.1534 287.283 90.1534C287.616 90.1534 287.963 90.197 288.322 90.2841C288.686 90.3712 289.023 90.5227 289.334 90.7386C289.644 90.9508 289.896 91.2481 290.089 91.6307C290.283 92.0095 290.379 92.4905 290.379 93.0739V99H289.368V97.6193H289.305C289.184 97.8769 289.004 98.1269 288.766 98.3693C288.527 98.6117 288.228 98.8106 287.868 98.9659C287.508 99.1212 287.086 99.1989 286.601 99.1989ZM286.737 98.2727C287.275 98.2727 287.741 98.1534 288.135 97.9148C288.529 97.6761 288.832 97.3598 289.044 96.9659C289.26 96.5682 289.368 96.1307 289.368 95.6534V94.392C289.292 94.464 289.165 94.5284 288.987 94.5852C288.813 94.642 288.61 94.6932 288.379 94.7386C288.152 94.7803 287.925 94.8163 287.697 94.8466C287.47 94.8769 287.266 94.9034 287.084 94.9261C286.591 94.9867 286.171 95.0814 285.822 95.2102C285.474 95.339 285.207 95.517 285.021 95.7443C284.836 95.9678 284.743 96.2557 284.743 96.608C284.743 97.1383 284.932 97.5492 285.311 97.8409C285.69 98.1288 286.165 98.2727 286.737 98.2727ZM296.43 99V90.2727H297.413V91.6136H297.486C297.661 91.1742 297.964 90.8201 298.395 90.5511C298.831 90.2784 299.324 90.142 299.873 90.142C299.956 90.142 300.049 90.1439 300.151 90.1477C300.253 90.1515 300.339 90.1553 300.407 90.1591V91.1875C300.361 91.1799 300.282 91.1686 300.168 91.1534C300.055 91.1383 299.931 91.1307 299.799 91.1307C299.344 91.1307 298.939 91.2273 298.583 91.4205C298.231 91.6098 297.952 91.8731 297.748 92.2102C297.543 92.5473 297.441 92.9318 297.441 93.3636V99H296.43ZM316.745 99.1818C315.991 99.1818 315.324 98.9905 314.745 98.608C314.169 98.2254 313.718 97.697 313.392 97.0227C313.067 96.3447 312.904 95.5625 312.904 94.6761C312.904 93.7822 313.067 92.9962 313.392 92.3182C313.718 91.6364 314.169 91.1061 314.745 90.7273C315.324 90.3447 315.991 90.1534 316.745 90.1534C317.499 90.1534 318.163 90.3447 318.739 90.7273C319.315 91.1098 319.766 91.6402 320.091 92.3182C320.421 92.9962 320.586 93.7822 320.586 94.6761C320.586 95.5625 320.423 96.3447 320.097 97.0227C319.771 97.697 319.319 98.2254 318.739 98.608C318.163 98.9905 317.499 99.1818 316.745 99.1818ZM316.745 98.2557C317.351 98.2557 317.864 98.0928 318.285 97.767C318.705 97.4413 319.023 97.0076 319.239 96.4659C319.459 95.9242 319.569 95.3277 319.569 94.6761C319.569 94.0246 319.459 93.4261 319.239 92.8807C319.023 92.3352 318.705 91.8977 318.285 91.5682C317.864 91.2386 317.351 91.0739 316.745 91.0739C316.142 91.0739 315.629 91.2386 315.205 91.5682C314.785 91.8977 314.464 92.3352 314.245 92.8807C314.029 93.4261 313.921 94.0246 313.921 94.6761C313.921 95.3277 314.029 95.9242 314.245 96.4659C314.464 97.0076 314.785 97.4413 315.205 97.767C315.625 98.0928 316.139 98.2557 316.745 98.2557ZM339.889 92.1875L338.963 92.4489C338.872 92.1875 338.744 91.9508 338.577 91.7386C338.41 91.5265 338.193 91.358 337.924 91.233C337.658 91.108 337.329 91.0455 336.935 91.0455C336.344 91.0455 335.859 91.1856 335.48 91.4659C335.102 91.7462 334.912 92.108 334.912 92.5511C334.912 92.9261 335.041 93.2311 335.299 93.4659C335.56 93.697 335.961 93.8807 336.503 94.017L337.821 94.3409C338.552 94.5189 339.1 94.8011 339.463 95.1875C339.831 95.5739 340.014 96.0587 340.014 96.642C340.014 97.1345 339.878 97.572 339.605 97.9545C339.333 98.3371 338.952 98.6383 338.463 98.858C337.978 99.0739 337.416 99.1818 336.776 99.1818C335.924 99.1818 335.221 98.9905 334.668 98.608C334.115 98.2216 333.761 97.6648 333.605 96.9375L334.577 96.6989C334.702 97.2178 334.946 97.6098 335.31 97.875C335.677 98.1402 336.16 98.2727 336.759 98.2727C337.429 98.2727 337.965 98.1231 338.367 97.8239C338.768 97.5208 338.969 97.142 338.969 96.6875C338.969 96.3352 338.852 96.0398 338.617 95.8011C338.382 95.5587 338.026 95.3807 337.549 95.267L336.122 94.9261C335.365 94.7443 334.804 94.4564 334.441 94.0625C334.077 93.6686 333.895 93.1799 333.895 92.5966C333.895 92.1155 334.026 91.6932 334.287 91.3295C334.549 90.9621 334.908 90.6742 335.367 90.4659C335.825 90.2576 336.348 90.1534 336.935 90.1534C337.734 90.1534 338.372 90.3352 338.85 90.6989C339.331 91.0587 339.677 91.5549 339.889 92.1875ZM349.117 99.1818C348.303 99.1818 347.598 98.9924 347.004 98.6136C346.409 98.2311 345.949 97.7027 345.623 97.0284C345.301 96.3504 345.14 95.5701 345.14 94.6875C345.14 93.8087 345.301 93.0284 345.623 92.3466C345.949 91.661 346.398 91.125 346.97 90.7386C347.545 90.3485 348.21 90.1534 348.964 90.1534C349.437 90.1534 349.894 90.2405 350.333 90.4148C350.773 90.5852 351.167 90.8485 351.515 91.2045C351.867 91.5568 352.146 92.0019 352.35 92.5398C352.555 93.0739 352.657 93.7064 352.657 94.4375V94.9375H345.839V94.0455H351.623C351.623 93.4848 351.509 92.9811 351.282 92.5341C351.059 92.0833 350.746 91.7273 350.345 91.4659C349.947 91.2045 349.487 91.0739 348.964 91.0739C348.411 91.0739 347.924 91.2216 347.504 91.517C347.083 91.8125 346.754 92.2027 346.515 92.6875C346.28 93.1723 346.161 93.7027 346.157 94.2784V94.8125C346.157 95.5057 346.276 96.1117 346.515 96.6307C346.758 97.1458 347.1 97.5455 347.544 97.8295C347.987 98.1136 348.511 98.2557 349.117 98.2557C349.53 98.2557 349.892 98.1913 350.203 98.0625C350.517 97.9337 350.78 97.7614 350.992 97.5455C351.208 97.3258 351.371 97.0852 351.481 96.8239L352.441 97.1364C352.309 97.5038 352.091 97.8428 351.788 98.1534C351.489 98.464 351.114 98.714 350.663 98.9034C350.216 99.089 349.701 99.1818 349.117 99.1818ZM363.791 95.6648V90.2727H364.803V99H363.791V97.5511H363.712C363.507 97.9981 363.183 98.3712 362.74 98.6705C362.297 98.9659 361.755 99.1136 361.115 99.1136C360.558 99.1136 360.064 98.9924 359.632 98.75C359.2 98.5038 358.861 98.1439 358.615 97.6705C358.369 97.197 358.246 96.6155 358.246 95.9261V90.2727H359.257V95.8636C359.257 96.5455 359.458 97.0947 359.859 97.5114C360.261 97.9242 360.776 98.1307 361.405 98.1307C361.799 98.1307 362.178 98.036 362.541 97.8466C362.905 97.6572 363.204 97.3807 363.439 97.017C363.674 96.6496 363.791 96.1989 363.791 95.6648ZM379.712 93.5455V99H378.7V90.2727H379.683V91.642H379.774C379.979 91.1951 380.297 90.8371 380.729 90.5682C381.164 90.2955 381.702 90.1591 382.342 90.1591C382.929 90.1591 383.445 90.2822 383.888 90.5284C384.335 90.7708 384.681 91.1288 384.927 91.6023C385.177 92.0758 385.302 92.6572 385.302 93.3466V99H384.291V93.4091C384.291 92.6932 384.09 92.1269 383.689 91.7102C383.291 91.2936 382.757 91.0852 382.087 91.0852C381.628 91.0852 381.221 91.1837 380.865 91.3807C380.509 91.5777 380.227 91.8617 380.018 92.233C379.814 92.6004 379.712 93.0379 379.712 93.5455ZM394.854 99.1818C394.04 99.1818 393.335 98.9924 392.741 98.6136C392.146 98.2311 391.686 97.7027 391.36 97.0284C391.038 96.3504 390.877 95.5701 390.877 94.6875C390.877 93.8087 391.038 93.0284 391.36 92.3466C391.686 91.661 392.135 91.125 392.707 90.7386C393.282 90.3485 393.947 90.1534 394.701 90.1534C395.174 90.1534 395.631 90.2405 396.07 90.4148C396.51 90.5852 396.904 90.8485 397.252 91.2045C397.604 91.5568 397.883 92.0019 398.087 92.5398C398.292 93.0739 398.394 93.7064 398.394 94.4375V94.9375H391.576V94.0455H397.36C397.36 93.4848 397.246 92.9811 397.019 92.5341C396.796 92.0833 396.483 91.7273 396.082 91.4659C395.684 91.2045 395.224 91.0739 394.701 91.0739C394.148 91.0739 393.661 91.2216 393.241 91.517C392.82 91.8125 392.491 92.2027 392.252 92.6875C392.017 93.1723 391.898 93.7027 391.894 94.2784V94.8125C391.894 95.5057 392.013 96.1117 392.252 96.6307C392.494 97.1458 392.837 97.5455 393.28 97.8295C393.724 98.1136 394.248 98.2557 394.854 98.2557C395.267 98.2557 395.629 98.1913 395.939 98.0625C396.254 97.9337 396.517 97.7614 396.729 97.5455C396.945 97.3258 397.108 97.0852 397.218 96.8239L398.178 97.1364C398.046 97.5038 397.828 97.8428 397.525 98.1534C397.225 98.464 396.85 98.714 396.4 98.9034C395.953 99.089 395.438 99.1818 394.854 99.1818ZM407.312 102.455C406.718 102.455 406.197 102.377 405.75 102.222C405.303 102.07 404.926 101.862 404.619 101.597C404.312 101.331 404.074 101.034 403.903 100.705L404.733 100.159C404.858 100.379 405.024 100.595 405.233 100.807C405.445 101.019 405.719 101.195 406.057 101.335C406.397 101.475 406.816 101.545 407.312 101.545C408.085 101.545 408.708 101.352 409.182 100.966C409.659 100.58 409.897 99.9792 409.897 99.1648V97.1989H409.807C409.689 97.464 409.521 97.7292 409.301 97.9943C409.081 98.2557 408.793 98.4735 408.437 98.6477C408.085 98.822 407.647 98.9091 407.125 98.9091C406.428 98.9091 405.808 98.7367 405.267 98.392C404.729 98.0473 404.305 97.5549 403.994 96.9148C403.687 96.2708 403.534 95.5038 403.534 94.6136C403.534 93.7311 403.683 92.9545 403.983 92.2841C404.286 91.6136 404.708 91.0909 405.25 90.7159C405.791 90.3409 406.422 90.1534 407.142 90.1534C407.676 90.1534 408.119 90.2481 408.471 90.4375C408.824 90.6231 409.106 90.8542 409.318 91.1307C409.534 91.4072 409.702 91.6761 409.824 91.9375H409.926V90.2727H410.915V99.2273C410.915 99.9659 410.757 100.574 410.443 101.051C410.129 101.528 409.701 101.881 409.159 102.108C408.617 102.339 408.002 102.455 407.312 102.455ZM407.244 97.983C407.805 97.983 408.284 97.8485 408.682 97.5795C409.079 97.3068 409.384 96.9167 409.596 96.4091C409.808 95.9015 409.915 95.2973 409.915 94.5966C409.915 93.9148 409.81 93.3106 409.602 92.7841C409.394 92.2538 409.091 91.8371 408.693 91.5341C408.299 91.2273 407.816 91.0739 407.244 91.0739C406.661 91.0739 406.168 91.2311 405.767 91.5455C405.365 91.8598 405.062 92.2841 404.858 92.8182C404.653 93.3485 404.551 93.9413 404.551 94.5966C404.551 95.2633 404.655 95.8523 404.863 96.3636C405.072 96.8712 405.377 97.2689 405.778 97.5568C406.18 97.8409 406.668 97.983 407.244 97.983ZM420.344 99.1818C419.59 99.1818 418.924 98.9905 418.344 98.608C417.768 98.2254 417.318 97.697 416.992 97.0227C416.666 96.3447 416.503 95.5625 416.503 94.6761C416.503 93.7822 416.666 92.9962 416.992 92.3182C417.318 91.6364 417.768 91.1061 418.344 90.7273C418.924 90.3447 419.59 90.1534 420.344 90.1534C421.098 90.1534 421.763 90.3447 422.338 90.7273C422.914 91.1098 423.365 91.6402 423.691 92.3182C424.02 92.9962 424.185 93.7822 424.185 94.6761C424.185 95.5625 424.022 96.3447 423.696 97.0227C423.371 97.697 422.918 98.2254 422.338 98.608C421.763 98.9905 421.098 99.1818 420.344 99.1818ZM420.344 98.2557C420.95 98.2557 421.463 98.0928 421.884 97.767C422.304 97.4413 422.623 97.0076 422.838 96.4659C423.058 95.9242 423.168 95.3277 423.168 94.6761C423.168 94.0246 423.058 93.4261 422.838 92.8807C422.623 92.3352 422.304 91.8977 421.884 91.5682C421.463 91.2386 420.95 91.0739 420.344 91.0739C419.742 91.0739 419.229 91.2386 418.804 91.5682C418.384 91.8977 418.064 92.3352 417.844 92.8807C417.628 93.4261 417.52 94.0246 417.52 94.6761C417.52 95.3277 417.628 95.9242 417.844 96.4659C418.064 97.0076 418.384 97.4413 418.804 97.767C419.225 98.0928 419.738 98.2557 420.344 98.2557ZM419.873 89.0625L421.327 86.483H422.526L420.782 89.0625H419.873ZM433.174 99.1818C432.394 99.1818 431.714 98.9867 431.135 98.5966C430.559 98.2064 430.112 97.6723 429.794 96.9943C429.475 96.3163 429.316 95.5436 429.316 94.6761C429.316 93.8011 429.477 93.0227 429.799 92.3409C430.125 91.6591 430.576 91.125 431.152 90.7386C431.727 90.3485 432.396 90.1534 433.157 90.1534C433.741 90.1534 434.269 90.267 434.742 90.4943C435.216 90.7178 435.606 91.0341 435.913 91.4432C436.224 91.8485 436.419 92.322 436.498 92.8636H435.475C435.369 92.3712 435.114 91.9508 434.708 91.6023C434.307 91.25 433.796 91.0739 433.174 91.0739C432.617 91.0739 432.125 91.2254 431.697 91.5284C431.269 91.8277 430.934 92.2462 430.691 92.7841C430.453 93.3182 430.333 93.9375 430.333 94.642C430.333 95.3504 430.451 95.9773 430.686 96.5227C430.921 97.0644 431.25 97.4886 431.674 97.7955C432.102 98.1023 432.602 98.2557 433.174 98.2557C433.561 98.2557 433.913 98.1837 434.231 98.0398C434.553 97.892 434.822 97.6837 435.038 97.4148C435.258 97.1458 435.405 96.8258 435.481 96.4545H436.504C436.428 96.9811 436.241 97.4508 435.941 97.8636C435.646 98.2727 435.261 98.5947 434.788 98.8295C434.318 99.0644 433.78 99.1818 433.174 99.1818ZM442.043 99V90.2727H443.06V99H442.043ZM442.56 88.7727C442.352 88.7727 442.174 88.7027 442.026 88.5625C441.878 88.4186 441.804 88.2462 441.804 88.0455C441.804 87.8447 441.878 87.6742 442.026 87.5341C442.174 87.3902 442.352 87.3182 442.56 87.3182C442.768 87.3182 442.946 87.3902 443.094 87.5341C443.242 87.6742 443.316 87.8447 443.316 88.0455C443.316 88.2462 443.242 88.4186 443.094 88.5625C442.946 88.7027 442.768 88.7727 442.56 88.7727ZM452.487 99.1818C451.733 99.1818 451.066 98.9905 450.487 98.608C449.911 98.2254 449.46 97.697 449.134 97.0227C448.809 96.3447 448.646 95.5625 448.646 94.6761C448.646 93.7822 448.809 92.9962 449.134 92.3182C449.46 91.6364 449.911 91.1061 450.487 90.7273C451.066 90.3447 451.733 90.1534 452.487 90.1534C453.24 90.1534 453.905 90.3447 454.481 90.7273C455.057 91.1098 455.507 91.6402 455.833 92.3182C456.163 92.9962 456.328 93.7822 456.328 94.6761C456.328 95.5625 456.165 96.3447 455.839 97.0227C455.513 97.697 455.061 98.2254 454.481 98.608C453.905 98.9905 453.24 99.1818 452.487 99.1818ZM452.487 98.2557C453.093 98.2557 453.606 98.0928 454.026 97.767C454.447 97.4413 454.765 97.0076 454.981 96.4659C455.201 95.9242 455.311 95.3277 455.311 94.6761C455.311 94.0246 455.201 93.4261 454.981 92.8807C454.765 92.3352 454.447 91.8977 454.026 91.5682C453.606 91.2386 453.093 91.0739 452.487 91.0739C451.884 91.0739 451.371 91.2386 450.947 91.5682C450.526 91.8977 450.206 92.3352 449.987 92.8807C449.771 93.4261 449.663 94.0246 449.663 94.6761C449.663 95.3277 449.771 95.9242 449.987 96.4659C450.206 97.0076 450.526 97.4413 450.947 97.767C451.367 98.0928 451.881 98.2557 452.487 98.2557ZM462.715 99.0852C462.491 99.0852 462.298 99.0057 462.135 98.8466C461.976 98.6837 461.896 98.4905 461.896 98.267C461.896 98.0398 461.976 97.8466 462.135 97.6875C462.298 97.5284 462.491 97.4489 462.715 97.4489C462.942 97.4489 463.135 97.5284 463.294 97.6875C463.453 97.8466 463.533 98.0398 463.533 98.267C463.533 98.4148 463.495 98.5511 463.419 98.6761C463.347 98.8011 463.249 98.9015 463.124 98.9773C463.002 99.0492 462.866 99.0852 462.715 99.0852Z" fill="#F4F4F5"/>
<defs>
<filter id="filter0_d_20_13" x="0" y="14" width="138" height="71" filterUnits="userSpaceOnUse" color-interpolation-filters="sRGB">
<feFlood flood-opacity="0" result="BackgroundImageFix"/>
<feColorMatrix in="SourceAlpha" type="matrix" values="0 0 0 0 0 0 0 0 0 0 0 0 0 0 0 0 0 0 127 0" result="hardAlpha"/>
<feOffset dx="7.5" dy="7.5"/>
<feGaussianBlur stdDeviation="6.25"/>
<feComposite in2="hardAlpha" operator="out"/>
<feColorMatrix type="matrix" values="0 0 0 0 0 0 0 0 0 0 0 0 0 0 0 0 0 0 0.25 0"/>
<feBlend mode="normal" in2="BackgroundImageFix" result="effect1_dropShadow_20_13"/>
<feBlend mode="normal" in="SourceGraphic" in2="effect1_dropShadow_20_13" result="shape"/>
</filter>
</defs>
</svg>
