<svg width="15" height="14" viewBox="0 0 15 14" fill="none" xmlns="http://www.w3.org/2000/svg">
<rect width="15" height="14" rx="3.24324" fill="#2F2F2F"/>
<path d="M2.94163 9.88235V3.07154H5.91893C6.65839 3.07154 7.30704 3.21425 7.86488 3.49965C8.42271 3.78506 8.85731 4.18073 9.16866 4.68668C9.48001 5.19262 9.63569 5.78938 9.63569 6.47695C9.63569 7.15803 9.48001 7.75479 9.16866 8.26722C8.85731 8.77317 8.42271 9.16884 7.86488 9.45425C7.30704 9.73965 6.65839 9.88235 5.91893 9.88235H2.94163ZM4.2065 8.81208H5.86055C6.37298 8.81208 6.81407 8.71479 7.1838 8.52019C7.56001 8.3256 7.84866 8.05317 8.04974 7.7029C8.25731 7.35262 8.36109 6.94398 8.36109 6.47695C8.36109 6.00344 8.25731 5.59479 8.04974 5.251C7.84866 4.90073 7.56001 4.6283 7.1838 4.43371C6.81407 4.23911 6.37298 4.14181 5.86055 4.14181H4.2065V8.81208Z" fill="white"/>
<circle cx="11.3513" cy="9.54054" r="0.810811" fill="#A33992"/>
</svg>
