<svg width="40" height="44" viewBox="0 0 40 44" fill="none" xmlns="http://www.w3.org/2000/svg">
<path d="M18.1868 0.627491C19.2924 0.0067255 20.702 0.00398478 21.78 0.627491L38.2863 9.85402C39.3186 10.4296 40.0096 11.5711 39.9999 12.7509V31.2506C40.0068 32.4798 39.2481 33.6459 38.1591 34.2105L21.7413 43.3946C21.1797 43.7023 20.5453 43.8553 19.904 43.8377C19.2627 43.8201 18.6378 43.6325 18.0942 43.2945L13.1675 40.4716C12.8317 40.2729 12.4544 40.1153 12.2167 39.7933C12.4268 39.5138 12.7999 39.4781 13.1039 39.3548C13.7894 39.1383 14.4168 38.8067 15.047 38.4558C15.2059 38.3462 15.4008 38.3873 15.5528 38.486L19.754 40.8951C20.0539 41.0664 20.3579 40.8402 20.615 40.6964L36.7357 31.6754C36.9347 31.5795 37.0452 31.3712 37.0287 31.1547V12.8331C37.0508 12.5865 36.9084 12.3618 36.6832 12.2617L20.3068 3.11741C20.2124 3.05268 20.1004 3.0179 19.9857 3.01765C19.8709 3.01741 19.7588 3.05171 19.6642 3.11604L3.31126 12.2795C3.09014 12.3796 2.93812 12.6016 2.96576 12.8482V31.1697C2.94642 31.3862 3.0625 31.5904 3.26289 31.6836L7.63269 34.1297C8.45358 34.5682 9.46104 34.8148 10.3649 34.4928C10.7604 34.345 11.1009 34.0809 11.3407 33.7358C11.5805 33.3907 11.7083 32.9811 11.7067 32.562L11.7109 14.3501C11.6915 14.0802 11.9486 13.8568 12.2126 13.8842H14.3132C14.5895 13.8774 14.8065 14.1679 14.7692 14.4392L14.7651 32.7662C14.7664 34.3941 14.092 36.1646 12.5732 36.9635C10.7021 37.9228 8.38863 37.7213 6.53955 36.7991L1.84084 34.2229C0.735258 33.6747 -0.00686202 32.4907 4.7846e-05 31.2629V12.7633C0.00464475 12.162 0.171344 11.5729 0.482864 11.057C0.794384 10.5411 1.23939 10.1173 1.77174 9.82935L18.1868 0.627491ZM22.9463 13.4512C25.333 13.3141 27.8883 13.3607 30.0359 14.5269C31.6984 15.4204 32.6202 17.295 32.6506 19.1285C32.6036 19.3752 32.3438 19.5122 32.1061 19.4944C31.4151 19.493 30.7213 19.504 30.0276 19.4903C29.7332 19.5012 29.5632 19.2327 29.5259 18.975C29.3269 18.098 28.8446 17.2306 28.0127 16.8071C26.7357 16.1727 25.2542 16.2042 23.8612 16.2179C22.8441 16.2727 21.7509 16.359 20.89 16.951C20.2266 17.4005 20.0276 18.3214 20.2639 19.0367C20.485 19.5615 21.0973 19.7301 21.5962 19.8863C24.4734 20.6318 27.5207 20.5715 30.344 21.5403C31.5118 21.9405 32.6547 22.7188 33.0555 23.9316C33.5779 25.5568 33.3498 27.4999 32.1848 28.8045C31.2396 29.8789 29.8631 30.4489 28.4881 30.7805C26.6597 31.1848 24.7636 31.1944 22.9076 31.0135C21.1622 30.8162 19.3463 30.3612 17.9989 29.1827C16.8463 28.1906 16.2852 26.6448 16.3405 25.1539C16.3543 24.9018 16.6072 24.7264 16.8518 24.7469H18.9248C19.204 24.7277 19.4085 24.9662 19.4223 25.2265C19.5508 26.0487 19.8673 26.9395 20.6025 27.4191C22.0204 28.3263 23.799 28.2632 25.4215 28.2893C26.7661 28.2303 28.2752 28.2125 29.3739 27.33C29.9543 26.8271 30.1243 25.9871 29.9681 25.2635C29.7982 24.6524 29.139 24.3687 28.5862 24.1673C25.7462 23.2765 22.6644 23.5999 19.8521 22.5914C18.7106 22.1912 17.6064 21.4348 17.1683 20.2714C16.5561 18.627 16.8366 16.5893 18.126 15.3285C19.3698 14.0747 21.194 13.5909 22.9215 13.4183L22.9463 13.4512Z" fill="#8CC84B"/>
</svg>
