<svg width="44" height="42" viewBox="0 0 44 42" fill="none" xmlns="http://www.w3.org/2000/svg">
<path d="M22.0003 24.932C24.061 24.932 25.7315 23.1549 25.7315 20.9627C25.7315 18.7704 24.061 16.9933 22.0003 16.9933C19.9396 16.9933 18.2691 18.7704 18.2691 20.9627C18.2691 23.1549 19.9396 24.932 22.0003 24.932Z" fill="#00D8FF"/>
<path fill-rule="evenodd" clip-rule="evenodd" d="M22.0003 12.892C27.01 12.892 31.6638 13.6568 35.1728 14.9419C39.4006 16.4903 42 18.8373 42 20.9626C42 23.1773 39.2451 25.6707 34.705 27.2709C31.2726 28.4807 26.7558 29.1123 22.0003 29.1123C17.1247 29.1123 12.5078 28.5195 9.03667 27.2576C4.64509 25.6608 2 23.1351 2 20.9626C2 18.8546 4.48191 16.5257 8.65029 14.9796C12.1723 13.6733 16.9411 12.892 21.9997 12.892H22.0003Z" stroke="#00D8FF" stroke-width="2.73408"/>
<path fill-rule="evenodd" clip-rule="evenodd" d="M15.3962 16.9507C17.8989 12.334 20.8464 8.42718 23.6459 5.83542C27.0188 2.71274 30.2287 1.48982 31.9592 2.55141C33.7626 3.65779 34.4167 7.44234 33.4517 12.4257C32.7228 16.1934 30.9799 20.6713 28.6042 25.0537C26.1684 29.547 23.3793 33.5057 20.6179 36.0734C17.1238 39.3228 13.7456 40.4988 11.9766 39.4134C10.26 38.3611 9.60358 34.9097 10.4271 30.2958C11.1229 26.3974 12.869 21.6124 15.3954 16.9506L15.3962 16.9507Z" stroke="#00D8FF" stroke-width="2.73408"/>
<path fill-rule="evenodd" clip-rule="evenodd" d="M15.4024 25.0655C12.8926 20.4541 11.1838 15.7854 10.4705 11.9109C9.61195 7.24264 10.219 3.67339 11.9479 2.60871C13.7496 1.49908 17.1583 2.78626 20.7347 6.1645C23.4387 8.7186 26.2153 12.5606 28.5979 16.9389C31.0407 21.4278 32.8715 25.9756 33.5837 29.803C34.4849 34.6463 33.7555 38.347 31.9881 39.4354C30.2733 40.4916 27.1351 39.3734 23.789 36.3101C20.9617 33.7219 17.937 29.7228 15.4024 25.0655V25.0655Z" stroke="#00D8FF" stroke-width="2.73408"/>
</svg>
