<svg width="40" height="44" viewBox="0 0 40 44" fill="none" xmlns="http://www.w3.org/2000/svg">
<path d="M39.5637 17.7718C39.5637 15.1657 36.2904 12.6958 31.2717 11.1641C32.4299 6.06391 31.9152 2.00621 29.647 0.707096C29.1242 0.402365 28.5131 0.258015 27.8455 0.258015V2.04631C28.2155 2.04631 28.5131 2.11848 28.7624 2.2548C29.8562 2.88029 30.3308 5.26199 29.9607 8.32531C29.8724 9.07913 29.7276 9.87302 29.5506 10.683C27.9741 10.298 26.253 10.0013 24.4435 9.80887C23.3578 8.32531 22.2318 6.97809 21.0977 5.79928C23.7196 3.36947 26.1807 2.03827 27.8536 2.03827V0.25C25.6418 0.25 22.7465 1.82176 19.819 4.54828C16.8914 1.8378 13.9961 0.28208 11.7844 0.28208V2.07035C13.4492 2.07035 15.9182 3.39353 18.5401 5.80729C17.4142 6.98612 16.2882 8.32531 15.2185 9.80887C13.4008 10.0013 11.6797 10.298 10.1034 10.691C9.91833 9.88906 9.78165 9.11119 9.68508 8.36541C9.30723 5.30209 9.77356 2.92038 10.8594 2.28688C11.1006 2.14253 11.4143 2.07838 11.7844 2.07838V0.290095C11.1087 0.290095 10.4974 0.434445 9.96671 0.739176C7.70664 2.03827 7.20002 6.08796 8.36612 11.1721C3.36361 12.7118 0.106323 15.1737 0.106323 17.7718C0.106323 20.3782 3.37968 22.8481 8.39831 24.3797C7.24012 29.48 7.75483 33.5376 10.023 34.8367C10.5458 35.1414 11.1569 35.2857 11.8326 35.2857C14.0443 35.2857 16.9397 33.714 19.8672 30.9875C22.7947 33.698 25.6901 35.2538 27.9018 35.2538C28.5773 35.2538 29.1886 35.1094 29.7195 34.8046C31.9794 33.5055 32.4862 29.4558 31.3199 24.3718C36.3064 22.8401 39.5637 20.3701 39.5637 17.7718ZM29.0922 12.4231C28.7946 13.4577 28.4246 14.5241 28.0063 15.5906C27.6767 14.9492 27.3308 14.3076 26.9528 13.666C26.5829 13.0246 26.1887 12.3991 25.7946 11.7896C26.9366 11.958 28.0385 12.1665 29.0922 12.4231ZM25.4085 20.9635C24.7812 22.0462 24.1379 23.0726 23.4703 24.027C22.2719 24.1311 21.0576 24.1873 19.835 24.1873C18.6205 24.1873 17.4061 24.1311 16.2159 24.0348C15.5483 23.0805 14.8967 22.0622 14.2694 20.9875C13.6582 19.9371 13.1033 18.8705 12.5965 17.7961C13.0952 16.7214 13.6582 15.6468 14.2615 14.5963C14.8888 13.5138 15.5321 12.4873 16.1997 11.533C17.3982 11.4287 18.6124 11.3726 19.835 11.3726C21.0495 11.3726 22.264 11.4287 23.4542 11.525C24.1217 12.4793 24.7733 13.4977 25.4006 14.5723C26.0119 15.6227 26.5667 16.6893 27.0735 17.764C26.5667 18.8384 26.0119 19.9131 25.4085 20.9635ZM28.0063 19.9211C28.4285 20.9662 28.799 22.0313 29.1163 23.1126C28.0626 23.3692 26.9528 23.5858 25.8027 23.7542C26.1968 23.1368 26.5908 22.5033 26.9609 21.8536C27.3308 21.2122 27.6767 20.5625 28.0063 19.9211ZM19.851 28.4776C19.1031 27.7076 18.3551 26.8496 17.6152 25.9114C18.3391 25.9435 19.079 25.9675 19.8269 25.9675C20.583 25.9675 21.3309 25.9516 22.0629 25.9114C21.3725 26.8059 20.6342 27.6626 19.851 28.4776ZM13.8673 23.7542C12.7253 23.5858 11.6234 23.3773 10.5699 23.1207C10.8674 22.0862 11.2375 21.0196 11.6556 19.9531C11.9854 20.5946 12.3313 21.2362 12.7091 21.8777C13.0872 22.5193 13.4733 23.1447 13.8673 23.7542ZM19.8109 7.06631C20.5589 7.83614 21.3068 8.6942 22.0467 9.63244C21.3228 9.60036 20.583 9.57632 19.835 9.57632C19.079 9.57632 18.331 9.59235 17.5992 9.63244C18.2895 8.73795 19.0278 7.88132 19.8109 7.06631ZM13.8592 11.7896C13.4652 12.4071 13.0711 13.0406 12.7012 13.6901C12.3313 14.3317 11.9854 14.9732 11.6556 15.6147C11.2334 14.5696 10.863 13.5045 10.5458 12.4231C11.5993 12.1745 12.7091 11.958 13.8592 11.7896ZM6.58064 21.8296C3.73358 20.6187 1.8918 19.031 1.8918 17.7718C1.8918 16.5129 3.73358 14.9171 6.58064 13.7143C7.27232 13.4175 8.02837 13.1529 8.80853 12.9043C9.26695 14.476 9.87014 16.1119 10.6181 17.788C9.87823 19.456 9.28295 21.0838 8.83263 22.6476C8.03646 22.3989 7.28041 22.1264 6.58064 21.8296ZM10.9076 33.289C9.81385 32.6636 9.33924 30.2819 9.70936 27.2184C9.79784 26.4648 9.94243 25.6707 10.1194 24.8608C11.6959 25.2458 13.417 25.5425 15.2266 25.7349C16.3123 27.2184 17.4383 28.5656 18.5723 29.7445C15.9504 32.1744 13.4893 33.5055 11.8164 33.5055C11.4545 33.4976 11.149 33.4253 10.9076 33.289ZM29.9849 27.1784C30.3628 30.2417 29.8965 32.6234 28.8106 33.2569C28.5694 33.4013 28.2558 33.4655 27.8856 33.4655C26.2208 33.4655 23.7518 32.1423 21.1299 29.7285C22.2559 28.5497 23.3819 27.2105 24.4516 25.7269C26.2692 25.5345 27.9903 25.2377 29.5666 24.8448C29.7517 25.6548 29.8965 26.4327 29.9849 27.1784ZM33.0813 21.8296C32.3896 22.1264 31.6336 22.391 30.8534 22.6396C30.395 21.0679 29.7918 19.432 29.0438 17.7559C29.7839 16.0879 30.379 14.46 30.8293 12.8962C31.6256 13.1448 32.3815 13.4175 33.0894 13.7143C35.9365 14.925 37.7782 16.5129 37.7782 17.7718C37.7701 19.031 35.9284 20.6267 33.0813 21.8296Z" fill="#61DAFB"/>
<path d="M19.8269 21.4368C21.857 21.4368 23.5025 19.796 23.5025 17.7719C23.5025 15.7479 21.857 14.1072 19.8269 14.1072C17.797 14.1072 16.1515 15.7479 16.1515 17.7719C16.1515 19.796 17.797 21.4368 19.8269 21.4368ZM1.898 41.5957H0.684695V43.6792H0V38.5289H1.70998C2.29178 38.5289 2.7388 38.661 3.05099 38.9252C3.36555 39.1891 3.52284 39.5736 3.52284 40.0782C3.52284 40.399 3.43533 40.6783 3.26031 40.9166C3.08766 41.1548 2.84642 41.3328 2.53658 41.4507L3.74989 43.6367V43.6792H3.01906L1.898 41.5957ZM0.684695 41.0404H1.73127C2.06948 41.0404 2.33791 40.953 2.53658 40.7786C2.73761 40.6041 2.83813 40.3706 2.83813 40.0782C2.83813 39.7599 2.74234 39.5158 2.55077 39.346C2.36156 39.1762 2.08721 39.0901 1.72771 39.0878H0.684695V41.0404ZM5.9708 43.75C5.45041 43.75 5.02704 43.5802 4.70066 43.2406C4.37427 42.8986 4.21108 42.4423 4.21108 41.8717V41.7514C4.21108 41.3718 4.28321 41.0334 4.42748 40.7363C4.57412 40.4366 4.77753 40.2031 5.03769 40.0358C5.30022 39.866 5.58403 39.781 5.88913 39.781C6.38821 39.781 6.77613 39.9449 7.05273 40.2727C7.3295 40.6005 7.4678 41.0698 7.4678 41.6805V41.9529H4.86739C4.87685 42.3304 4.98684 42.6358 5.19733 42.8692C5.41019 43.1002 5.67981 43.2158 6.00623 43.2158C6.23804 43.2158 6.43425 43.1687 6.59503 43.0744C6.75599 42.98 6.89663 42.8551 7.0173 42.6994L7.41817 43.0107C7.09643 43.5035 6.61409 43.75 5.9708 43.75ZM5.88913 40.3188C5.62424 40.3188 5.40192 40.4155 5.22217 40.6088C5.04242 40.7999 4.93125 41.0687 4.88869 41.4153H6.81156V41.3658C6.79268 41.0334 6.70275 40.7762 6.54198 40.5946C6.38102 40.4108 6.16341 40.3188 5.88913 40.3188ZM10.6005 43.6792C10.5625 43.6037 10.5318 43.4694 10.5082 43.2759C10.203 43.5919 9.83884 43.75 9.41549 43.75C9.03711 43.75 8.72616 43.6439 8.48247 43.4316C8.2413 43.2169 8.12063 42.9458 8.12063 42.618C8.12063 42.2196 8.27206 41.9106 8.57473 41.6913C8.87974 41.4695 9.30795 41.3587 9.85899 41.3587H10.4976V41.0581C10.4976 40.8293 10.4289 40.6477 10.2919 40.5134C10.1546 40.3765 9.95232 40.3082 9.68508 40.3082C9.45092 40.3082 9.25472 40.367 9.09627 40.485C8.93783 40.6028 8.85852 40.7456 8.85852 40.9131H8.19868C8.19868 40.7221 8.26612 40.5381 8.40082 40.3611C8.53804 40.182 8.72256 40.0405 8.95438 39.9367C9.18853 39.833 9.44499 39.781 9.7241 39.781C10.1665 39.781 10.5129 39.8919 10.7636 40.1137C11.0143 40.333 11.1443 40.636 11.1539 41.0226V42.7842C11.1539 43.1357 11.1988 43.4151 11.2887 43.6225V43.6792H10.6005ZM9.51135 43.1805C9.71709 43.1805 9.91222 43.1274 10.0967 43.0213C10.2811 42.9151 10.4147 42.7772 10.4976 42.6074V41.8222H9.98308C9.179 41.8222 8.77687 42.0567 8.77687 42.526C8.77687 42.7312 8.84558 42.8916 8.98262 43.0071C9.11984 43.1226 9.29608 43.1805 9.51135 43.1805ZM13.7224 43.2158C13.9565 43.2158 14.1612 43.145 14.3362 43.0035C14.5111 42.8621 14.6081 42.6852 14.627 42.4729H15.248C15.2361 42.6922 15.1604 42.901 15.0208 43.0991C14.8813 43.2973 14.6944 43.4552 14.4602 43.573C14.2284 43.691 13.9826 43.75 13.7224 43.75C13.1997 43.75 12.7834 43.5766 12.4735 43.23C12.1662 42.8809 12.0124 42.4046 12.0124 41.8009V41.6913C12.0124 41.3187 12.0809 40.9873 12.2182 40.6973C12.3554 40.4072 12.5516 40.182 12.8071 40.0217C13.0649 39.8612 13.3688 39.781 13.7188 39.781C14.1493 39.781 14.5065 39.9096 14.7903 40.1667C15.0764 40.4237 15.2289 40.7574 15.248 41.1677H14.627C14.6081 40.9201 14.5135 40.7172 14.3432 40.5593C14.1754 40.399 13.9671 40.3188 13.7188 40.3188C13.3853 40.3188 13.1264 40.4389 12.9418 40.6796C12.7598 40.9177 12.6687 41.2633 12.6687 41.716V41.8398C12.6687 42.2807 12.7598 42.6203 12.9418 42.8585C13.124 43.0968 13.3843 43.2158 13.7224 43.2158ZM16.8762 38.9252V39.8519H17.5929V40.3577H16.8762V42.7312C16.8762 42.8845 16.9083 42.9999 16.9721 43.0778C17.0359 43.1533 17.1448 43.1911 17.2985 43.1911C17.3741 43.1911 17.4782 43.1769 17.6105 43.1486V43.6792C17.4379 43.7264 17.2701 43.75 17.1068 43.75C16.8137 43.75 16.5925 43.6614 16.4434 43.4846C16.2945 43.3078 16.22 43.0566 16.22 42.7312V40.3577H15.521V39.8519H16.22V38.9252H16.8762ZM24.2377 43.6792H23.5529L20.9526 39.7104V43.6792H20.2679V38.5289H20.9526L23.5601 42.5154V38.5289H24.2377V43.6792ZM27.7144 43.6792C27.6765 43.6037 27.6457 43.4694 27.6222 43.2759C27.317 43.5919 26.9528 43.75 26.5295 43.75C26.1511 43.75 25.8399 43.6439 25.5964 43.4316C25.3553 43.2169 25.2346 42.9458 25.2346 42.618C25.2346 42.2196 25.3858 41.9106 25.6887 41.6913C25.9937 41.4695 26.4219 41.3587 26.9729 41.3587H27.6116V41.0581C27.6116 40.8293 27.5429 40.6477 27.4056 40.5134C27.2686 40.3765 27.0663 40.3082 26.799 40.3082C26.5649 40.3082 26.3687 40.367 26.2102 40.485C26.0518 40.6028 25.9725 40.7456 25.9725 40.9131H25.3126C25.3126 40.7221 25.3801 40.5381 25.5148 40.3611C25.652 40.182 25.8365 40.0405 26.0683 39.9367C26.3025 39.833 26.559 39.781 26.8381 39.781C27.2803 39.781 27.6269 39.8919 27.8776 40.1137C28.1283 40.333 28.2583 40.636 28.2678 41.0226V42.7842C28.2678 43.1357 28.3128 43.4151 28.4027 43.6225V43.6792H27.7144ZM26.6253 43.1805C26.8311 43.1805 27.0262 43.1274 27.2107 43.0213C27.395 42.9151 27.5287 42.7772 27.6116 42.6074V41.8222H27.097C26.293 41.8222 25.8908 42.0567 25.8908 42.526C25.8908 42.7312 25.9595 42.8916 26.0966 43.0071C26.2338 43.1226 26.41 43.1805 26.6253 43.1805ZM30.1871 38.9252V39.8519H30.9038V40.3577H30.1871V42.7312C30.1871 42.8845 30.2191 42.9999 30.2829 43.0778C30.3468 43.1533 30.4556 43.1911 30.6094 43.1911C30.6849 43.1911 30.789 43.1769 30.9216 43.1486V43.6792C30.7487 43.7264 30.5809 43.75 30.4176 43.75C30.1245 43.75 29.9033 43.6614 29.7542 43.4846C29.6053 43.3078 29.5308 43.0566 29.5308 42.7312V40.3577H28.832V39.8519H29.5308V38.9252H30.1871ZM32.3867 43.6792H31.7303V39.8519H32.3867V43.6792ZM31.6771 38.8366C31.6771 38.7306 31.7091 38.6409 31.7729 38.5678C31.8391 38.4946 31.9361 38.4582 32.0637 38.4582C32.1916 38.4582 32.2885 38.4946 32.3547 38.5678C32.4209 38.6409 32.454 38.7306 32.454 38.8366C32.454 38.9427 32.4209 39.0311 32.3547 39.102C32.2885 39.1726 32.1916 39.2081 32.0637 39.2081C31.9361 39.2081 31.8391 39.1726 31.7729 39.102C31.7091 39.0311 31.6771 38.9427 31.6771 38.8366ZM34.7069 42.7914L35.6575 39.8519H36.3282L34.9517 43.6792H34.4513L33.0608 39.8519H33.7312L34.7069 42.7914ZM38.5028 43.75C37.9825 43.75 37.5592 43.5802 37.2328 43.2406C36.9064 42.8986 36.7432 42.4423 36.7432 41.8717V41.7514C36.7432 41.3718 36.8154 41.0334 36.9596 40.7363C37.1062 40.4366 37.3096 40.2031 37.5698 40.0358C37.8324 39.866 38.1162 39.781 38.4212 39.781C38.9202 39.781 39.3081 39.9449 39.5849 40.2727C39.8615 40.6005 40 41.0698 40 41.6805V41.9529H37.3995C37.409 42.3304 37.5189 42.6358 37.7295 42.8692C37.9422 43.1002 38.212 43.2158 38.5382 43.2158C38.7701 43.2158 38.9664 43.1687 39.1272 43.0744C39.288 42.98 39.4288 42.8551 39.5495 42.6994L39.9504 43.0107C39.6286 43.5035 39.1461 43.75 38.5028 43.75ZM38.4212 40.3188C38.1564 40.3188 37.934 40.4155 37.7543 40.6088C37.5745 40.7999 37.4633 41.0687 37.4209 41.4153H39.3436V41.3658C39.3247 41.0334 39.2348 40.7762 39.074 40.5946C38.9132 40.4108 38.6956 40.3188 38.4212 40.3188Z" fill="#61DAFB"/>
</svg>
