<svg width="41" height="40" viewBox="0 0 41 40" fill="none" xmlns="http://www.w3.org/2000/svg">
<g clip-path="url(#clip0_103_123)">
<path d="M0.5 20V0H40.5V40H0.5" fill="#007ACC"/>
<path d="M9.27002 20.07V21.7H14.47V36.5H18.16V21.7H23.36V20.1C23.36 19.2 23.36 18.47 23.32 18.45C23.32 18.42 20.15 18.41 16.3 18.41L9.30002 18.44V20.08L9.27002 20.07ZM32.64 18.4C33.66 18.64 34.44 19.1 35.14 19.83C35.51 20.23 36.06 20.93 36.1 21.11C36.1 21.17 34.37 22.34 33.32 22.99C33.28 23.02 33.12 22.85 32.96 22.59C32.44 21.85 31.91 21.53 31.08 21.47C29.88 21.39 29.08 22.02 29.08 23.07C29.08 23.39 29.14 23.57 29.26 23.83C29.53 24.38 30.03 24.71 31.58 25.39C34.44 26.62 35.68 27.43 36.43 28.59C37.28 29.89 37.47 31.93 36.9 33.46C36.26 35.13 34.7 36.26 32.47 36.63C31.77 36.75 30.17 36.73 29.42 36.6C27.82 36.3 26.29 35.5 25.35 34.47C24.98 34.07 24.27 33 24.31 32.93L24.69 32.69L26.19 31.82L27.32 31.16L27.58 31.51C27.91 32.03 28.65 32.73 29.08 32.97C30.38 33.64 32.12 33.55 32.98 32.77C33.35 32.43 33.51 32.07 33.51 31.57C33.51 31.11 33.44 30.9 33.21 30.55C32.89 30.11 32.25 29.75 30.45 28.95C28.38 28.07 27.5 27.51 26.68 26.65C26.21 26.13 25.78 25.32 25.58 24.65C25.43 24.07 25.38 22.65 25.52 22.08C25.95 20.08 27.46 18.68 29.62 18.28C30.32 18.14 31.97 18.2 32.66 18.38L32.64 18.4Z" fill="white"/>
</g>
<defs>
<clipPath id="clip0_103_123">
<rect width="40" height="40" fill="white" transform="translate(0.5)"/>
</clipPath>
</defs>
</svg>
