<svg width="59" height="60" viewBox="0 0 59 60" fill="none" xmlns="http://www.w3.org/2000/svg">
<g clip-path="url(#clip0_352_153)">
<path d="M49.1503 1.27768C51.5918 1.27768 53.899 2.23561 55.6418 3.97701C57.3842 5.71976 58.3411 8.02734 58.3411 10.4689V49.5311C58.3411 51.9727 57.3839 54.2802 55.6418 56.0223C53.899 57.7651 51.5915 58.7223 49.1503 58.7223H10.088C7.64648 58.7223 5.33923 57.7651 3.59682 56.0223C1.85407 54.2802 0.896819 51.9727 0.896819 49.5311V10.4689C0.896819 8.02734 1.85407 5.71976 3.59682 3.97701C5.33956 2.23561 7.64682 1.27768 10.088 1.27768H49.1503ZM49.1503 0.703125H10.088C4.7168 0.703125 0.322266 5.09765 0.322266 10.4689V49.5311C0.322266 54.9023 4.7168 59.2969 10.088 59.2969H49.1503C54.5215 59.2969 58.916 54.9023 58.916 49.5311V10.4689C58.916 5.09765 54.5215 0.703125 49.1503 0.703125Z" fill="#FAFAFA"/>
<path d="M16.2444 13.4374H32.8555C35.9188 13.4374 38.3798 14.1355 40.228 15.5431C42.0762 16.9504 43.0047 19.0657 43.0047 21.9097C43.0047 23.633 42.5834 25.1079 41.7414 26.3334C40.8983 27.5585 39.6926 28.5168 38.1216 29.1864V29.2812C40.2286 29.7318 41.8267 30.7269 42.9086 32.2688C43.9904 33.82 44.5361 35.7536 44.5361 38.0903C44.5361 39.4306 44.2967 40.6852 43.8179 41.8433C43.3391 43.0108 42.5921 44.0173 41.5676 44.8587C40.543 45.7015 39.2416 46.3724 37.6422 46.8696C36.0437 47.3679 34.1473 47.6166 31.9458 47.6166H16.2444V13.4374ZM22.2283 27.7503H31.994C33.4304 27.7503 34.6267 27.3482 35.5843 26.5249C36.5419 25.7016 37.0204 24.5334 37.0204 23.0009C37.0204 21.2779 36.5895 20.0629 35.7286 19.3641C34.8672 18.6646 33.6223 18.3107 31.9947 18.3107H22.2283V27.7503ZM22.2283 42.7343H32.8077C34.6274 42.7343 36.044 42.2642 37.0405 41.3166C38.0453 40.3785 38.5535 39.0378 38.5535 37.3145C38.5535 35.62 38.0553 34.3276 37.0405 33.4082C36.0256 32.4894 34.6274 32.0488 32.8077 32.0488H22.2283V42.7343Z" fill="#FAFAFA"/>
</g>
<defs>
<clipPath id="clip0_352_153">
<rect width="58.5938" height="58.5938" fill="white" transform="translate(0.322266 0.703125)"/>
</clipPath>
</defs>
</svg>
