<svg width="177" height="50" viewBox="0 0 177 50" fill="none" xmlns="http://www.w3.org/2000/svg">
<g clip-path="url(#clip0_352_110)">
<path d="M162.571 17.8284C162.144 17.8284 161.728 17.9166 161.361 18.1247L149.726 24.8434C148.974 25.2774 148.516 26.0965 148.516 26.9682V40.3813C148.516 41.2523 148.974 42.0705 149.726 42.5054L152.765 44.2595C154.241 44.987 154.785 44.9756 155.457 44.9756C157.643 44.9756 158.891 43.6494 158.891 41.3447V28.1042C158.891 27.9171 158.729 27.7832 158.545 27.7832H157.088C156.901 27.7832 156.742 27.9171 156.742 28.1042V41.3447C156.742 42.3661 155.678 43.3936 153.951 42.5302L150.789 40.6776C150.677 40.6169 150.591 40.5094 150.591 40.3813V26.9679C150.591 26.8408 150.676 26.7114 150.789 26.6469L162.398 19.9532C162.451 19.9225 162.51 19.9064 162.571 19.9064C162.632 19.9064 162.692 19.9225 162.744 19.9532L174.354 26.6472C174.465 26.7138 174.552 26.8371 174.552 26.9686V40.3817C174.552 40.5097 174.487 40.6409 174.379 40.7027L162.744 47.3967C162.644 47.4561 162.507 47.4561 162.398 47.3967L159.409 45.6183C159.364 45.5937 159.313 45.5807 159.261 45.5807C159.209 45.5807 159.159 45.5937 159.113 45.6183C158.288 46.0859 158.133 46.1402 157.359 46.4086C157.169 46.4752 156.879 46.5786 157.458 46.903L161.361 49.1998C161.729 49.4121 162.147 49.523 162.571 49.5212C162.996 49.5238 163.414 49.413 163.782 49.2002L175.416 42.5058C176.169 42.0681 176.626 41.2527 176.626 40.3817V26.9682C176.626 26.0969 176.169 25.2791 175.416 24.8441L163.782 18.1253C163.417 17.9169 162.999 17.8287 162.571 17.8287L162.571 17.8284Z" fill="#FAFAFA"/>
<path d="M165.684 27.4128C162.371 27.4128 160.398 28.8229 160.398 31.1677C160.398 33.711 162.356 34.41 165.536 34.7245C169.34 35.097 169.636 35.6556 169.636 36.4044C169.636 37.7031 168.601 38.2569 166.154 38.2569C163.078 38.2569 162.403 37.4893 162.177 35.9598C162.15 35.7957 162.023 35.6631 161.855 35.6631H160.348C160.163 35.6631 160.003 35.8231 160.003 36.0092C160.003 37.9672 161.068 40.2825 166.154 40.2825C169.835 40.2825 171.958 38.8375 171.958 36.3055C171.958 33.7958 170.243 33.1219 166.672 32.6498C163.064 32.1723 162.72 31.9385 162.72 31.0936C162.72 30.3959 163.012 29.4628 165.684 29.4628C168.071 29.4628 168.954 29.9778 169.315 31.5876C169.347 31.7387 169.48 31.8592 169.636 31.8592H171.143C171.236 31.8592 171.326 31.8022 171.39 31.7356C171.453 31.6645 171.498 31.5845 171.489 31.4887C171.256 28.7168 169.407 27.4128 165.684 27.4128Z" fill="#FAFAFA"/>
<path d="M94.1711 0.240821C94.0411 0.240907 93.9133 0.274866 93.8003 0.339354C93.6881 0.405021 93.5949 0.498791 93.53 0.611428C93.465 0.724064 93.4305 0.85168 93.4299 0.981703V19.8787C93.4299 20.0641 93.3437 20.2302 93.183 20.3233C93.1043 20.3691 93.0148 20.3933 92.9237 20.3933C92.8325 20.3933 92.743 20.3691 92.6643 20.3233L89.5765 18.5449C89.3512 18.4146 89.0956 18.3459 88.8354 18.3459C88.5752 18.3459 88.3196 18.4146 88.0944 18.5449L75.7682 25.6588C75.3075 25.9249 75.0273 26.4361 75.0273 26.9682V41.1964C75.0273 41.7278 75.3078 42.2147 75.7682 42.4807L88.0944 49.595C88.3195 49.7256 88.5752 49.7945 88.8354 49.7945C89.0957 49.7945 89.3514 49.7256 89.5765 49.595L101.903 42.4807C102.128 42.3508 102.316 42.1637 102.446 41.9382C102.576 41.7126 102.644 41.4568 102.644 41.1964V5.72466C102.644 5.45817 102.573 5.19655 102.438 4.96651C102.303 4.73646 102.11 4.54623 101.878 4.41524L94.5416 0.314635C94.4265 0.250434 94.2988 0.239105 94.1711 0.240821ZM14.8782 18.0014C14.6433 18.0107 14.4223 18.0519 14.2115 18.1741L1.88493 25.2883C1.65913 25.4181 1.47167 25.6052 1.34155 25.8308C1.21143 26.0563 1.14329 26.3123 1.14405 26.5727L1.16877 45.6678C1.16877 45.9331 1.30575 46.18 1.53921 46.3098C1.65113 46.377 1.77925 46.4125 1.90982 46.4125C2.0404 46.4125 2.16851 46.377 2.28043 46.3098L9.5921 42.1106C10.0552 41.8353 10.3577 41.3567 10.3577 40.8259V31.9086C10.3577 31.3764 10.6375 30.8882 11.0989 30.6239L14.2111 28.8208C14.4361 28.6899 14.692 28.6216 14.9523 28.623C15.2064 28.623 15.4673 28.6865 15.6932 28.8208L18.8057 30.6239C19.0318 30.7535 19.2194 30.9406 19.3496 31.1663C19.4798 31.3919 19.5479 31.648 19.547 31.9086V40.8256C19.547 41.3564 19.8525 41.8384 20.3126 42.1103L27.6242 46.3098C27.7362 46.377 27.8643 46.4125 27.9949 46.4125C28.1254 46.4125 28.2535 46.377 28.3655 46.3098C28.4781 46.2446 28.5717 46.1509 28.6367 46.0382C28.7018 45.9254 28.7361 45.7976 28.7362 45.6674L28.7603 26.5727C28.7617 26.3122 28.6939 26.0559 28.5637 25.8302C28.4335 25.6045 28.2457 25.4175 28.0194 25.2883L15.6932 18.1741C15.4848 18.0519 15.263 18.011 15.0265 18.0014H14.8782ZM125.641 18.1741C125.384 18.1741 125.131 18.2393 124.9 18.3718L112.574 25.4861C112.348 25.6159 112.161 25.8031 112.031 26.0286C111.901 26.2541 111.832 26.5101 111.833 26.7704V40.9986C111.833 41.5339 112.134 42.0186 112.598 42.2833L124.826 49.2493C125.278 49.5068 125.829 49.5263 126.283 49.2733L133.694 45.1483C133.929 45.0179 134.088 44.7741 134.089 44.5063C134.09 44.3759 134.057 44.2476 133.992 44.1346C133.926 44.0216 133.832 43.9282 133.719 43.864L121.318 36.7497C121.086 36.6172 120.923 36.349 120.923 36.0826V31.6367C120.923 31.3706 121.088 31.1268 121.318 30.9943L125.172 28.771C125.284 28.7058 125.412 28.6715 125.542 28.6715C125.673 28.6715 125.8 28.7058 125.913 28.771L129.766 30.9943C129.879 31.0592 129.973 31.1527 130.038 31.2654C130.103 31.3782 130.137 31.5061 130.137 31.6363V35.144C130.137 35.2742 130.171 35.4021 130.236 35.5149C130.301 35.6276 130.394 35.7212 130.507 35.786C130.738 35.9196 131.018 35.9199 131.248 35.786L138.634 31.4887C138.86 31.3583 139.047 31.171 139.177 30.9455C139.307 30.72 139.375 30.4643 139.376 30.204V26.7708C139.376 26.2404 139.094 25.7525 138.634 25.4861L126.382 18.3718C126.157 18.2416 125.901 18.1731 125.641 18.1741ZM88.7858 28.796C88.8504 28.796 88.9259 28.8118 88.9836 28.8451L93.2078 31.2906C93.3224 31.3568 93.4055 31.4794 93.4055 31.6116V36.5025C93.4055 36.6354 93.3231 36.7576 93.2078 36.8239L88.9836 39.2693C88.9272 39.3015 88.8633 39.3185 88.7984 39.3185C88.7334 39.3185 88.6695 39.3015 88.6131 39.2693L84.3893 36.8239C84.2743 36.7573 84.1915 36.6354 84.1915 36.5025V31.6116C84.1915 31.4791 84.2746 31.3575 84.3893 31.2906L88.6131 28.8455C88.6651 28.8132 88.725 28.7962 88.7862 28.7964L88.7858 28.796Z" fill="#FAFAFA"/>
<path d="M51.9059 18.1C51.6491 18.1 51.3951 18.1653 51.1651 18.2978L38.8389 25.3873C38.3778 25.6527 38.0977 26.1649 38.0977 26.6964V40.9246C38.0977 41.4567 38.3781 41.9429 38.8389 42.2093L51.1651 49.3232C51.3901 49.4539 51.6458 49.5228 51.9061 49.5228C52.1664 49.5228 52.4221 49.4539 52.6472 49.3232L64.9733 42.2093C65.199 42.0793 65.3864 41.8921 65.5164 41.6665C65.6465 41.4409 65.7148 41.185 65.7142 40.9246V26.6964C65.7142 26.1643 65.4341 25.6527 64.9733 25.3873L52.6472 18.2978C52.4219 18.1677 52.1661 18.0994 51.9059 18.1ZM125.616 30.797C125.567 30.797 125.512 30.797 125.468 30.8217L123.097 32.205C123.053 32.2295 123.016 32.2653 122.99 32.3087C122.964 32.3521 122.949 32.4016 122.949 32.4521V35.1692C122.949 35.2715 123.008 35.3652 123.097 35.4164L125.468 36.7749C125.557 36.8264 125.652 36.8264 125.74 36.7749L128.111 35.416C128.155 35.3913 128.192 35.3556 128.218 35.3123C128.244 35.269 128.258 35.2197 128.259 35.1692V32.4518C128.258 32.4013 128.244 32.352 128.218 32.3087C128.192 32.2654 128.155 32.2297 128.111 32.205L125.74 30.8214C125.696 30.7956 125.666 30.797 125.616 30.797Z" fill="#FAFAFA"/>
</g>
<defs>
<clipPath id="clip0_352_110">
<rect width="175.781" height="49.7812" fill="white" transform="translate(0.849609 0.109375)"/>
</clipPath>
</defs>
</svg>
