<svg width="118" height="48" viewBox="0 0 118 48" fill="none" xmlns="http://www.w3.org/2000/svg">
<g clip-path="url(#clip0_352_116)">
<path d="M71.9916 31.8436H75.0935V20.4739H71.9916V31.8436ZM71.8599 17.5346C71.8599 16.5245 72.4226 16.0196 73.548 16.0196C74.673 16.0196 75.2361 16.5245 75.2361 17.5346C75.2361 18.0162 75.0953 18.3907 74.8142 18.6586C74.5326 18.9265 74.1107 19.0601 73.548 19.0601C72.4226 19.0601 71.8599 18.5516 71.8599 17.5346Z" fill="#FAFAFA"/>
<path fill-rule="evenodd" clip-rule="evenodd" d="M59.4416 25.2841C60.4421 24.4366 60.942 23.2131 60.942 21.613C60.942 20.0739 60.4726 18.9162 59.5336 18.1398C58.5945 17.3641 57.2235 16.9756 55.4197 16.9756H50.6707V31.8437H53.8232V26.5553H55.1759C57.0199 26.5553 58.4419 26.1319 59.4416 25.2841ZM54.8606 23.9723H53.8232V19.5589H55.2571C56.1182 19.5589 56.7502 19.7349 57.1538 20.0875C57.5571 20.4402 57.7589 20.986 57.7589 21.725C57.7589 22.4569 57.5183 23.0146 57.0368 23.3977C56.5552 23.7809 55.8302 23.9723 54.8606 23.9723Z" fill="#FAFAFA"/>
<path d="M70.3466 20.3518C70.0687 20.2908 69.7196 20.2603 69.2991 20.2603C68.5938 20.2603 67.9414 20.4552 67.3417 20.8449C66.7445 21.2316 66.2533 21.7612 65.9125 22.3858H65.7602L65.3023 20.4739H62.9531V31.8437H66.055V26.0572C66.055 25.1418 66.3312 24.4298 66.8835 23.9213C67.4365 23.4128 68.2075 23.1585 69.1975 23.1585C69.557 23.1585 69.8618 23.1927 70.1128 23.2602L70.3466 20.3518ZM84.7985 31.132C85.609 30.5215 86.0141 29.6338 86.0141 28.4675C86.0141 27.9048 85.9161 27.42 85.7193 27.0131C85.5228 26.6062 85.2173 26.2471 84.8039 25.9351C84.3906 25.6234 83.7396 25.288 82.8512 24.9285C81.8547 24.5285 81.209 24.2265 80.9142 24.0233C80.6194 23.82 80.4714 23.5794 80.4714 23.3011C80.4714 22.8063 80.9293 22.5588 81.8446 22.5588C82.3595 22.5588 82.8648 22.6368 83.3596 22.7923C83.8545 22.9488 84.387 23.1485 84.9565 23.3927L85.892 21.1555C84.5971 20.559 83.2648 20.2606 81.8952 20.2606C80.4578 20.2606 79.3481 20.5368 78.5653 21.0894C77.7814 21.6421 77.39 22.4231 77.39 23.4333C77.39 24.0233 77.4833 24.5199 77.6701 24.9232C77.8561 25.3268 78.1545 25.6844 78.5653 25.9961C78.9747 26.3082 79.6178 26.6472 80.4919 27.0131C81.102 27.2709 81.5904 27.4961 81.9566 27.6893C82.3226 27.8828 82.5804 28.0556 82.7298 28.2082C82.8788 28.3608 82.9531 28.559 82.9531 28.8032C82.9531 29.4539 82.3904 29.7792 81.2647 29.7792C80.7156 29.7792 80.08 29.6877 79.3582 29.5049C78.6357 29.3218 77.9868 29.0948 77.4104 28.8233V31.3862C77.9371 31.6086 78.4861 31.7739 79.0479 31.8793C79.6311 31.9913 80.336 32.0473 81.1634 32.0473C82.7765 32.0473 83.9884 31.7424 84.7985 31.132ZM98.3021 31.8437H95.2002V25.2029C95.2002 24.3827 95.0627 23.7672 94.7887 23.3571C94.5136 22.947 94.0816 22.7416 93.4916 22.7416C92.6987 22.7416 92.1224 23.0332 91.7629 23.6164C91.4035 24.1996 91.2239 25.1587 91.2239 26.4946V31.8437H88.122V20.4739H90.4917L90.9086 21.9283H91.0817C91.3866 21.4061 91.8275 20.9975 92.4035 20.7027C92.9799 20.4078 93.641 20.2603 94.3868 20.2603C96.0886 20.2603 97.241 20.8165 97.8446 21.9283H98.119C98.4242 21.3993 98.8734 20.9892 99.4667 20.6976C100.06 20.406 100.729 20.2603 101.475 20.2603C102.763 20.2603 103.738 20.591 104.399 21.2517C105.06 21.9128 105.39 22.9722 105.39 24.4297V31.8437H102.278V25.2029C102.278 24.3827 102.141 23.7672 101.867 23.3571C101.592 22.947 101.16 22.7416 100.57 22.7416C99.8107 22.7416 99.2429 23.0131 98.8662 23.5553C98.4903 24.0979 98.3021 24.9587 98.3021 26.1383V31.8437Z" fill="#FAFAFA"/>
<path fill-rule="evenodd" clip-rule="evenodd" d="M114.732 30.2978L115.332 31.8437H117.498V24.267C117.498 22.9111 117.091 21.9009 116.278 21.2366C115.464 20.5723 114.294 20.2398 112.769 20.2398C111.176 20.2398 109.725 20.5823 108.416 21.2671L109.443 23.3621C110.67 22.8127 111.738 22.5383 112.647 22.5383C113.827 22.5383 114.417 23.1147 114.417 24.267V24.7655L112.444 24.8265C110.742 24.8876 109.469 25.2047 108.625 25.7774C107.781 26.3505 107.359 27.2404 107.359 28.447C107.359 29.5997 107.672 30.4877 108.299 31.1115C108.927 31.7352 109.786 32.0469 110.878 32.0469C111.766 32.0469 112.486 31.9198 113.038 31.6656C113.591 31.4113 114.128 30.9556 114.65 30.2978H114.732ZM113.216 26.6163L114.417 26.5757V27.5111C114.417 28.1963 114.201 28.7454 113.771 29.1587C113.34 29.5724 112.765 29.7792 112.047 29.7792C111.044 29.7792 110.542 29.3418 110.542 28.4674C110.542 27.857 110.762 27.4031 111.203 27.1046C111.644 26.8066 112.315 26.6436 113.216 26.6163ZM34.8363 37.5099L14.1956 43.6146C13.565 43.8013 12.9607 43.2558 13.0932 42.6199L20.4669 7.30609C20.6048 6.64606 21.5176 6.54121 21.8056 7.15275L35.4586 36.145C35.716 36.6919 35.4223 37.3368 34.8363 37.5099ZM38.3759 36.0699L22.5676 2.50063V2.49991C22.3712 2.08654 22.0666 1.73402 21.6861 1.47975C21.3055 1.22547 20.8633 1.07891 20.4062 1.05561C19.4442 0.999594 18.5824 1.46355 18.0961 2.25321L0.95132 30.0223C0.690857 30.4418 0.555357 30.9268 0.560699 31.4206C0.566041 31.9143 0.712006 32.3963 0.981484 32.81L9.36213 45.7922C9.86164 46.5671 10.7271 47.0156 11.6266 47.0156C11.8816 47.0156 12.138 46.9797 12.3901 46.905L36.7169 39.7101C37.0831 39.6028 37.422 39.4181 37.7106 39.1686C37.9993 38.9191 38.2311 38.6105 38.3903 38.2636C38.5474 37.9188 38.6275 37.5439 38.625 37.165C38.6225 36.7861 38.5375 36.4126 38.3759 36.0699Z" fill="#FAFAFA"/>
</g>
<defs>
<clipPath id="clip0_352_116">
<rect width="117.188" height="46.0312" fill="white" transform="translate(0.630859 0.984375)"/>
</clipPath>
</defs>
</svg>
