<svg width="60" height="60" viewBox="0 0 60 60" fill="none" xmlns="http://www.w3.org/2000/svg">
<g clip-path="url(#clip0_352_160)">
<path d="M28.6348 59.2969C23.662 59.2969 18.8928 57.3214 15.3765 53.8051C11.8602 50.2888 9.88477 45.5197 9.88477 40.5469C9.88477 35.5741 11.8602 30.8049 15.3765 27.2886C18.8928 23.7723 23.662 21.7969 28.6348 21.7969V59.2969ZM28.6348 0.703125H9.88477V19.4531H28.6348V0.703125ZM40.3535 19.4531C42.8399 19.4531 45.2245 18.4654 46.9826 16.7073C48.7408 14.9491 49.7285 12.5645 49.7285 10.0781C49.7285 7.59172 48.7408 5.20715 46.9826 3.449C45.2245 1.69085 42.8399 0.703125 40.3535 0.703125C37.8671 0.703125 35.4825 1.69085 33.7244 3.449C31.9662 5.20715 30.9785 7.59172 30.9785 10.0781C30.9785 12.5645 31.9662 14.9491 33.7244 16.7073C35.4825 18.4654 37.8671 19.4531 40.3535 19.4531Z" fill="#FAFAFA"/>
</g>
<defs>
<clipPath id="clip0_352_160">
<rect width="58.5938" height="58.5938" fill="white" transform="translate(0.509766 0.703125)"/>
</clipPath>
</defs>
</svg>
