<svg width="60" height="36" viewBox="0 0 60 36" fill="none" xmlns="http://www.w3.org/2000/svg">
<g clip-path="url(#clip0_352_158)">
<path d="M30.2129 0.421875C22.4005 0.421875 17.5175 4.3282 15.5645 12.1406C18.4941 8.2343 21.912 6.76945 25.8184 7.74609C28.047 8.30319 29.64 9.92024 31.4033 11.7099C34.2758 14.6256 37.6001 18 44.8613 18C52.6738 18 57.5567 14.0937 59.5098 6.28125C56.5801 10.1876 53.1622 11.6524 49.2559 10.6758C47.0272 10.1187 45.4342 8.50163 43.6709 6.71201C40.7984 3.79628 37.4742 0.421875 30.2129 0.421875ZM15.5645 18C7.75203 18 2.86906 21.9063 0.916016 29.7187C3.8457 25.8124 7.2636 24.3476 11.1699 25.3242C13.3985 25.8813 14.9916 27.4984 16.7549 29.288C19.6273 32.2037 22.9516 35.5781 30.2129 35.5781C38.0253 35.5781 42.9083 31.6718 44.8613 23.8594C41.9316 27.7657 38.5137 29.2305 34.6074 28.2539C32.3788 27.6968 30.7858 26.0798 29.0225 24.2901C26.15 21.3744 22.8257 18 15.5645 18Z" fill="#FAFAFA"/>
</g>
<defs>
<clipPath id="clip0_352_158">
<rect width="58.5938" height="35.25" fill="white" transform="translate(0.916016 0.375)"/>
</clipPath>
</defs>
</svg>
